<?xml version="1.0" encoding="utf-8"?>
<!-- Generator: Adobe Illustrator 16.0.0, SVG Export Plug-In . SVG Version: 6.00 Build 0)  -->
<!DOCTYPE svg PUBLIC "-//W3C//DTD SVG 1.1//EN" "http://www.w3.org/Graphics/SVG/1.1/DTD/svg11.dtd">
<svg version="1.1" id="Calque_1" xmlns="http://www.w3.org/2000/svg" xmlns:xlink="http://www.w3.org/1999/xlink" x="0px" y="0px"
	 width="30px" height="30px" viewBox="0 0 30 30" enable-background="new 0 0 30 30" xml:space="preserve">
<g>
	<g>
		<path fill="#C4C0C0" d="M26.458,17.688l-1.503-1.238c0.076-0.496,0.114-1.002,0.114-1.507s-0.038-1.011-0.114-1.509l1.503-1.237
			c0.481-0.396,0.604-1.074,0.293-1.612l-2.045-3.541c-0.225-0.392-0.646-0.635-1.097-0.635c-0.153,0-0.303,0.027-0.445,0.081
			L21.34,7.173c-0.793-0.636-1.67-1.143-2.612-1.511l-0.32-1.919c-0.103-0.614-0.628-1.06-1.25-1.06h-4.09
			c-0.623,0-1.147,0.445-1.25,1.059l-0.32,1.919C10.554,6.03,9.678,6.537,8.886,7.173L7.063,6.49
			C6.919,6.435,6.769,6.408,6.616,6.408c-0.451,0-0.871,0.243-1.097,0.634l-2.044,3.542c-0.311,0.538-0.188,1.216,0.292,1.612
			l1.503,1.239c-0.076,0.497-0.114,1.003-0.114,1.508s0.038,1.011,0.114,1.507l-1.503,1.238c-0.481,0.396-0.604,1.074-0.292,1.613
			l2.044,3.541c0.227,0.391,0.646,0.635,1.097,0.635c0.153,0,0.305-0.027,0.445-0.082l1.825-0.684
			c0.792,0.637,1.668,1.143,2.612,1.51l0.32,1.92c0.102,0.613,0.627,1.061,1.25,1.061h4.09c0.622,0,1.147-0.445,1.25-1.059
			l0.319-1.922c0.943-0.367,1.82-0.873,2.613-1.51l1.822,0.684c0.144,0.055,0.294,0.082,0.447,0.082c0.45,0,0.87-0.244,1.097-0.635
			l2.045-3.541C27.062,18.762,26.939,18.084,26.458,17.688z M17.157,26.199h-2.546h-1h-0.522v-5.486
			c0.651,0.23,1.343,0.352,2.052,0.354h0.004c0.711,0,1.404-0.121,2.056-0.354v5.482l0,0C17.186,26.197,17.172,26.199,17.157,26.199
			z M15.144,20.066H15.14c-2.823-0.004-5.12-2.301-5.12-5.125c0-1.644,0.775-3.151,2.067-4.106v3.651
			c0,0.176,0.092,0.338,0.243,0.429l2.555,1.534c0.159,0.094,0.357,0.094,0.515,0l2.557-1.534c0.15-0.091,0.242-0.253,0.242-0.429
			v-3.651c1.293,0.955,2.066,2.463,2.066,4.106c0,1.367-0.533,2.652-1.502,3.621S16.51,20.066,15.144,20.066z M25.884,18.801
			l-2.045,3.541c-0.063,0.109-0.197,0.164-0.324,0.115l-2.096-0.785c-0.171-0.063-0.362-0.029-0.501,0.088
			c-0.81,0.691-1.725,1.225-2.719,1.592v-3.104c0.459-0.266,0.887-0.592,1.271-0.979c1.158-1.158,1.796-2.695,1.796-4.328
			c0-2.31-1.28-4.397-3.34-5.447c-0.155-0.079-0.341-0.071-0.489,0.019c-0.148,0.091-0.238,0.253-0.238,0.427v4.262l-2.056,1.234
			l-2.056-1.234V9.941c0-0.174-0.091-0.336-0.239-0.427c-0.149-0.09-0.334-0.098-0.488-0.019c-2.061,1.05-3.341,3.137-3.341,5.447
			c0,1.664,0.65,3.216,1.832,4.369c0.375,0.369,0.791,0.684,1.236,0.938v3.125c-1.019-0.365-1.954-0.908-2.781-1.613
			c-0.092-0.078-0.208-0.119-0.325-0.119c-0.059,0-0.119,0.01-0.175,0.031l-2.099,0.787c-0.029,0.012-0.06,0.016-0.091,0.016
			c-0.094,0-0.182-0.049-0.23-0.133l-2.045-3.541c-0.066-0.113-0.039-0.256,0.062-0.34l1.726-1.422
			c0.141-0.115,0.208-0.297,0.175-0.477c-0.098-0.531-0.147-1.078-0.147-1.621s0.049-1.089,0.147-1.621
			c0.033-0.18-0.034-0.362-0.175-0.477l-1.726-1.422c-0.101-0.083-0.128-0.225-0.062-0.339l2.045-3.542
			c0.063-0.11,0.197-0.165,0.325-0.116l2.096,0.785c0.17,0.064,0.362,0.03,0.5-0.088c0.834-0.711,1.778-1.256,2.806-1.622
			c0.171-0.061,0.296-0.21,0.326-0.389l0.368-2.206c0.021-0.129,0.131-0.223,0.262-0.223h4.09c0.13,0,0.241,0.094,0.263,0.223
			l0.367,2.206c0.031,0.179,0.155,0.328,0.326,0.389c1.027,0.366,1.972,0.911,2.805,1.622c0.14,0.118,0.33,0.152,0.501,0.088
			l2.097-0.786c0.03-0.011,0.063-0.017,0.094-0.017c0.094,0,0.183,0.051,0.23,0.133l2.044,3.542
			c0.066,0.114,0.039,0.255-0.062,0.339l-1.726,1.422c-0.141,0.115-0.208,0.297-0.175,0.477c0.098,0.531,0.146,1.078,0.146,1.621
			s-0.049,1.089-0.146,1.621c-0.033,0.178,0.034,0.361,0.175,0.477l1.726,1.422C25.923,18.543,25.95,18.688,25.884,18.801z"/>
	</g>
</g>
</svg>
