<?xml version="1.0" encoding="utf-8"?>
<!-- Generator: Adobe Illustrator 16.0.0, SVG Export Plug-In . SVG Version: 6.00 Build 0)  -->
<!DOCTYPE svg PUBLIC "-//W3C//DTD SVG 1.1//EN" "http://www.w3.org/Graphics/SVG/1.1/DTD/svg11.dtd">
<svg version="1.1" id="Calque_1" xmlns="http://www.w3.org/2000/svg" xmlns:xlink="http://www.w3.org/1999/xlink" x="0px" y="0px"
	 width="30px" height="30px" viewBox="0 0 50 50" enable-background="new 0 0 50 50" xml:space="preserve">
<g id="Inté">
	<g id="V3-Tuberculosis-half" transform="translate(-13.000000, -110.000000)">
		<g id="pie-chart-1" transform="translate(3.000000, 100.000000)">
			<path id="Combined-Shape" fill="#1c1b1b" class="lefticon" d="M51.583,21.329c-3.463-3.919-8.44-6.163-13.665-6.163c-0.559,0-1.015,0.458-1.015,1.016v17.22
				c0,0.559,0.456,1.015,1.015,1.015h17.221c0.558,0,1.016-0.456,1.016-1.015C56.145,28.949,54.527,24.657,51.583,21.329z
				 M38.934,32.377V17.223c4.267,0.272,8.28,2.22,11.125,5.445c2.387,2.708,3.803,6.12,4.021,9.709H38.934z M50.601,35.748
				c0.561,0,1.015,0.448,1.024,1.008c0,4.868-1.896,9.448-5.344,12.892c-3.444,3.446-8.023,5.343-12.892,5.343
				s-9.448-1.896-12.893-5.343c-3.447-3.437-5.343-8.016-5.343-12.883c0-4.868,1.896-9.449,5.343-12.894
				c3.437-3.445,8.018-5.341,12.883-5.341c0.561,0,1.017,0.457,1.017,1.015c0,0.558-0.457,1.016-1.017,1.016
				c-8.93,0-16.195,7.265-16.195,16.204c0,8.931,7.255,16.204,16.195,16.204s16.206-7.273,16.206-16.204
				C49.585,36.204,50.043,35.748,50.601,35.748z M33.379,23.76c0.569,0,1.017,0.455,1.017,1.016c0,0.557-0.457,1.015-1.017,1.015
				c-0.557,0-1.015-0.458-1.015-1.015C32.364,24.215,32.822,23.76,33.379,23.76z M33.379,28.068c0.569,0,1.017,0.458,1.017,1.016
				c0,0.559-0.457,1.015-1.017,1.015c-0.557,0-1.015-0.456-1.015-1.015C32.364,28.527,32.822,28.068,33.379,28.068z M33.379,32.369
				c0.569,0,1.017,0.457,1.017,1.017c0,0.557-0.457,1.016-1.017,1.016c-0.557,0-1.015-0.458-1.015-1.016
				C32.364,32.825,32.822,32.369,33.379,32.369z M32.668,36.974c0.188-0.194,0.45-0.295,0.721-0.295
				c0.271,0,0.533,0.108,0.721,0.295c0.186,0.187,0.294,0.449,0.294,0.721c0,0.271-0.109,0.533-0.294,0.721
				c-0.188,0.186-0.45,0.294-0.721,0.294c-0.271,0-0.533-0.108-0.721-0.294c-0.186-0.188-0.295-0.45-0.295-0.721
				C32.374,37.423,32.482,37.16,32.668,36.974z M43.007,37.694c0,0.559-0.457,1.015-1.018,1.015c-0.558,0-1.016-0.456-1.016-1.015
				c0-0.56,0.458-1.016,1.016-1.016C42.55,36.679,43.007,37.135,43.007,37.694z M38.706,37.694c0,0.559-0.458,1.015-1.016,1.015
				c-0.561,0-1.017-0.456-1.017-1.015c0-0.56,0.456-1.016,1.017-1.016C38.248,36.679,38.706,37.135,38.706,37.694z M47.316,37.694
				c0,0.559-0.458,1.015-1.018,1.015c-0.559,0-1.015-0.456-1.015-1.015c0-0.56,0.456-1.016,1.015-1.016
				C46.858,36.679,47.316,37.135,47.316,37.694z"/>
		</g>
	</g>
</g>
</svg>
