<?xml version="1.0" encoding="utf-8"?>
<!-- Generator: Adobe Illustrator 16.0.0, SVG Export Plug-In . SVG Version: 6.00 Build 0)  -->
<!DOCTYPE svg PUBLIC "-//W3C//DTD SVG 1.1//EN" "http://www.w3.org/Graphics/SVG/1.1/DTD/svg11.dtd">
<svg version="1.1" id="Calque_1" xmlns="http://www.w3.org/2000/svg" xmlns:xlink="http://www.w3.org/1999/xlink" x="0px" y="0px"
	 width="30px" height="30px" viewBox="0 0 50 50" enable-background="new 0 0 50 50" xml:space="preserve">
<circle fill="none" stroke="#CF2725" stroke-width="2" stroke-miterlimit="10" cx="25.188" cy="25.188" r="18.813"/>
<path fill="#CF2725" d="M35.134,30.007c0.414-0.4,0.414-1.069,0-1.483c-0.401-0.401-1.068-0.401-1.468,0l-7.521,7.521V11.226
	c-0.001-0.578-0.461-1.038-1.04-1.038c-0.579,0-1.053,0.46-1.053,1.038v24.818l-7.506-7.521c-0.415-0.401-1.083-0.401-1.484,0
	c-0.415,0.414-0.415,1.083,0,1.483l9.302,9.302c0.4,0.415,1.068,0.415,1.469,0L35.134,30.007z"/>
</svg>
