<?xml version="1.0" encoding="utf-8"?>
<!-- Generator: Adobe Illustrator 16.0.0, SVG Export Plug-In . SVG Version: 6.00 Build 0)  -->
<!DOCTYPE svg PUBLIC "-//W3C//DTD SVG 1.1//EN" "http://www.w3.org/Graphics/SVG/1.1/DTD/svg11.dtd">
<svg version="1.1" id="Calque_1" xmlns="http://www.w3.org/2000/svg" xmlns:xlink="http://www.w3.org/1999/xlink" x="0px" y="0px"
	 width="40px" height="40px" viewBox="0 0 40 40" enable-background="new 0 0 40 40" xml:space="preserve">
<path fill="#4F4C4C" d="M19.754,11.98c0.151-0.076,0.33-0.076,0.481,0l7.532,3.767c0.396,0.199,0.396,0.764,0,0.962l-7.532,3.766
	c-0.152,0.077-0.33,0.077-0.48,0l-7.534-3.766c-0.396-0.199-0.396-0.764,0-0.962L19.754,11.98z M13.665,16.229l6.33,3.165
	l6.331-3.165l-6.331-3.165L13.665,16.229z M12.702,23.28l7.292,3.647l7.292-3.647c0.267-0.134,0.59-0.024,0.722,0.241
	c0.133,0.266,0.024,0.588-0.24,0.722l-7.533,3.767c-0.152,0.076-0.33,0.076-0.48,0l-7.534-3.767
	c-0.266-0.134-0.374-0.456-0.241-0.722C12.114,23.255,12.436,23.148,12.702,23.28z M12.702,19.514l7.292,3.646l7.292-3.646
	c0.267-0.133,0.59-0.026,0.722,0.24c0.133,0.267,0.024,0.59-0.24,0.723l-7.533,3.766c-0.152,0.074-0.33,0.074-0.48,0l-7.534-3.767
	c-0.266-0.132-0.374-0.455-0.241-0.722C12.114,19.488,12.436,19.38,12.702,19.514z"/>
</svg>
