<?xml version="1.0" encoding="utf-8"?>
<!-- Generator: Adobe Illustrator 16.0.0, SVG Export Plug-In . SVG Version: 6.00 Build 0)  -->
<!DOCTYPE svg PUBLIC "-//W3C//DTD SVG 1.1//EN" "http://www.w3.org/Graphics/SVG/1.1/DTD/svg11.dtd">
<svg version="1.1" id="Calque_1" xmlns="http://www.w3.org/2000/svg" xmlns:xlink="http://www.w3.org/1999/xlink" x="0px" y="0px"
	 width="40px" height="40px" viewBox="0 0 40 40" enable-background="new 0 0 40 40" xml:space="preserve">
<path fill="#CF2725" d="M19.76,11.985c0.151-0.076,0.33-0.076,0.481,0l7.532,3.767c0.396,0.199,0.396,0.764,0,0.962l-7.532,3.767
	c-0.151,0.076-0.33,0.076-0.48,0l-7.534-3.767c-0.396-0.199-0.396-0.764,0-0.962L19.76,11.985z M13.67,16.233L20,19.398l6.331-3.165
	L20,13.069L13.67,16.233z M12.708,23.285L20,26.933l7.293-3.647c0.267-0.134,0.59-0.024,0.722,0.241
	c0.133,0.266,0.024,0.588-0.24,0.722l-7.533,3.767c-0.151,0.076-0.33,0.076-0.48,0l-7.534-3.767
	c-0.266-0.134-0.374-0.456-0.241-0.722C12.12,23.26,12.442,23.153,12.708,23.285z M12.708,19.519L20,23.165l7.293-3.646
	c0.267-0.133,0.59-0.025,0.722,0.24c0.133,0.267,0.024,0.59-0.24,0.723l-7.533,3.767c-0.151,0.074-0.33,0.074-0.48,0l-7.534-3.767
	c-0.266-0.133-0.374-0.455-0.241-0.723C12.12,19.493,12.442,19.386,12.708,19.519z"/>
</svg>
