<?xml version="1.0" encoding="utf-8"?>
<!-- Generator: Adobe Illustrator 16.0.0, SVG Export Plug-In . SVG Version: 6.00 Build 0)  -->
<!DOCTYPE svg PUBLIC "-//W3C//DTD SVG 1.1//EN" "http://www.w3.org/Graphics/SVG/1.1/DTD/svg11.dtd">
<svg version="1.1" id="Calque_1" xmlns="http://www.w3.org/2000/svg" xmlns:xlink="http://www.w3.org/1999/xlink" x="0px" y="0px"
	 width="40px" height="40px" viewBox="0 0 40 40" enable-background="new 0 0 40 40" xml:space="preserve">
<path fill="#4F4C4C" d="M20.001,17.826l-5.862-5.862c-0.498-0.498-1.305-0.498-1.803,0c-0.498,0.499-0.498,1.305,0,1.803
	l5.862,5.862l-5.862,5.861c-0.498,0.498-0.498,1.305,0,1.803c0.499,0.498,1.305,0.498,1.803,0l5.862-5.861l5.86,5.861
	c0.498,0.498,1.307,0.498,1.803,0c0.498-0.5,0.498-1.307,0-1.803l-5.86-5.861l5.86-5.862c0.498-0.498,0.498-1.305,0-1.803
	s-1.305-0.498-1.803,0L20.001,17.826z"/>
</svg>
