<?xml version="1.0" encoding="utf-8"?>
<!-- Generator: Adobe Illustrator 16.0.0, SVG Export Plug-In . SVG Version: 6.00 Build 0)  -->
<!DOCTYPE svg PUBLIC "-//W3C//DTD SVG 1.1//EN" "http://www.w3.org/Graphics/SVG/1.1/DTD/svg11.dtd">
<svg version="1.1" id="Calque_1" xmlns="http://www.w3.org/2000/svg" xmlns:xlink="http://www.w3.org/1999/xlink" x="0px" y="0px"
	 width="50px" height="45px" viewBox="0 0 50 50" enable-background="new 0 0 50 50" xml:space="preserve">
<path fill="#CF2725" d="M15.913,36.528c0.348-0.131,0.263-0.263,0.319-0.367s-0.047-0.183,0.114-0.355
	c0.108-0.114,0.395-1.052,0.395-1.052s0.179-0.345,0.155-0.428c-0.023-0.079,0.097-0.393,0.212-0.673
	c0.067-0.149,0.125-0.305,0.173-0.462c0.076-0.209,0.169-0.414,0.278-0.609c0.05-0.097,0.108-0.338,0.175-0.552
	c0.055-0.173,0.394-1.121,0.394-1.121s0.358-0.694,0.395-0.943c0.009-0.082,0.198-0.361,0.231-0.496c0.033-0.132,0-0.215,0.083-0.28
	c0.15-0.191,0.257-0.412,0.314-0.648c0-0.131,0.25-0.501,0.415-0.82c0.174-0.542,0.192-0.677,0.358-0.89
	c0.131-0.168,0.163-0.464,0.212-0.627c0.041-0.171,0.102-0.334,0.181-0.49c0.084-0.131,0.239-0.465,0.29-0.546
	c0.04-0.124,0.063-0.253,0.068-0.383c0.017-0.1,0.159-0.204,0.182-0.298c0.034-0.139,0.044-0.114,0.044-0.183v-0.201
	c0.03-0.078,0.108-0.184,0.057-0.292c-0.051-0.108-0.315,0.055-0.638,0.16c-0.057,0.018-0.292,0.131-0.658,0.297
	c-2.052,0.971-8.113,3.944-8.113,3.944l-5.671,2.862c0,0-2.366,1.203-2.695,1.601c-0.161,0.193-0.193,0.49-0.112,0.975
	c0.037,0.212,0.096,0.468,0.178,0.763c0.263,0.964,0.468,1.444,0.648,1.566c0.446,0.287,1.558-0.476,2.645-0.903
	c2.435-0.952,3.628-1.276,3.628-1.276s0.281-0.054,0.131,0.051c-0.526,0.37-2.412,1.257-3.31,1.756
	c-1.157,0.641-4.602,2.497-4.77,2.714c-0.168,0.218-0.424,0.363-0.381,0.789c0.1,0.622,0.289,1.226,0.563,1.794
	c0.282,0.594,0.747,1.184,1.11,1.292c0.363,0.108,0.48-0.166,1.044-0.394c0.175-0.073,8.676-4.124,8.676-4.124
	S15.566,36.663,15.913,36.528L15.913,36.528z M7.717,24.997c0.054-0.002,0.106,0.012,0.151,0.039
	c0.039,0.039,0.09,0.062,0.145,0.065c0.047-0.01,0.063-0.01,0.086,0.038c0.02,0.072,0.055,0.14,0.104,0.195
	c0.072,0.065,0.121,0.058,0.152,0.112c0.032,0.055,0.071,0.072,0.063,0.153c-0.008,0.08-0.016,0.119,0.008,0.131
	c0.023,0.012,0.023,0.033,0.033,0.104c0.009,0.071-0.041,0.199-0.01,0.209s0.033-0.011,0.033,0.047s-0.033,0.032-0.033,0.064
	c0.002,0.019,0.015,0.038,0.033,0.048c-0.018,0.068-0.007,0.141,0.031,0.199c0.074,0.034,0.16,0.03,0.231-0.007
	c0.043-0.048,0.099-0.081,0.161-0.097c0.104-0.041,0.146-0.151,0.263-0.215c0.118-0.065,0.153-0.153,0.216-0.145
	c0.063,0.007,0.144-0.104,0.2-0.095c0.056,0.009,0.131-0.057,0.198-0.066c0.05,0.001,0.098-0.019,0.132-0.055
	c0.032-0.041,0.04-0.07,0.072-0.07s0.007-0.017,0.063-0.066c0.056-0.049,0.063-0.085,0.113-0.095
	c0.048-0.01,0.087-0.096,0.166-0.131c0.079-0.035,0.169-0.124,0.28-0.124c0.112,0,0.053,0.012,0.132,0.084
	c0.054,0.049,0.123,0.08,0.196,0.088c0.095,0.021,0.111-0.033,0.131,0.037c0.002,0.064,0.056,0.113,0.118,0.111
	c0.001,0,0.002,0,0.002,0c0.011,0.001,0.021,0.001,0.033,0c0.103-0.016,0.132-0.088,0.239-0.144
	c0.672-0.354,1.472-0.742,2.348-1.147c3.024-1.395,6.92-2.973,9.481-3.889c1.36-0.485,2.08-0.777,4.498-1.569
	c3.981-1.174,7.294-2.111,9.465-2.605c0,0,0.482-0.12,0.591-0.131c0.071,0,0.141-0.029,0.192-0.08
	c0.052-0.088,0.072-0.191,0.058-0.293c-0.025-0.092-0.109-0.227-0.084-0.294c0.027-0.067,0.169-0.404,0.176-0.463
	c0.009-0.059-0.075-0.152-0.109-0.177s0.026-0.208-0.017-0.284c-0.052-0.081-0.121-0.148-0.203-0.2
	c-0.075-0.05-0.102-0.319-0.102-0.369c0-0.048,0-0.073-0.008-0.11c0,0,0.051-0.033-0.007-0.075
	c-0.061-0.042-0.122-0.057-0.132-0.132c-0.013-0.075,0.018-0.06-0.007-0.11c-0.018-0.04-0.047-0.073-0.085-0.093
	c-0.025-0.009-0.008-0.067-0.018-0.151c-0.011-0.084-0.017-0.144-0.017-0.144l-0.186-0.143c-0.032-0.024-0.032-0.041-0.041-0.092
	c-0.007-0.051,0-0.083-0.06-0.11c-0.059-0.026-0.276-0.083-0.276-0.083c-0.07-0.022-0.145-0.028-0.218-0.017
	c-0.067,0.011-0.133,0.031-0.194,0.059c-0.093,0.054-0.195,0.088-0.303,0.101c-0.083,0-0.132,0.033-0.202,0.006
	c-0.071-0.026-0.059-0.057-0.361,0.052c-0.301,0.109-2.891,0.818-2.891,0.818s-7.115,2.103-11.438,3.907
	c-1.423,0.591-7.23,3.007-12.732,6.402c-0.09,0.05-0.167,0.121-0.225,0.206c-0.009,0.02-0.02,0.037-0.028,0.056
	c-0.025,0.062-0.064,0.117-0.114,0.161c-0.039,0.026-0.079,0.05-0.121,0.071c-0.04,0.023-0.104,0.016-0.151,0.072
	c-0.047,0.057-0.072,0.096-0.111,0.104c-0.044,0.014-0.086,0.035-0.121,0.065c-0.047,0.031-0.087,0.047-0.071,0.131
	C7.653,24.947,7.661,24.997,7.717,24.997z M20.646,13.451c0,0.074,0.042,0.123,0.106,0.211c0.046,0.062,0,0.101,0.084,0.195
	c0.084,0.093,0.03,0.062,0.151,0.17c0.073,0.067,0.069,0.18,0.179,0.382c0.059,0.119,0.138,0.227,0.233,0.319
	c0.085,0.096,0.186,0.178,0.299,0.239c0.167,0.097,0.083,0.263,0.272,0.253c0.15-0.029,0.303-0.033,0.454-0.012
	c0.108,0.032,0.049,0,0.185,0s-0.049-0.021,0.131-0.043c0.18-0.022,0.036,0.131,0.241,0.151c0.107,0.036,0.224,0.042,0.335,0.015
	c0.22-0.037,0.376-0.083,0.442-0.225c0.131-0.272,0.227-0.277,0.33-0.387c0.102-0.109,0.12-0.039,0.213-0.076
	c0.092-0.037,0.122-0.283,0.225-0.35c0.162-0.101,0.319-0.35,0.449-0.443c0.13-0.093,0.436-0.565,0.603-0.897
	c0.167-0.333,0.377-0.865,0.394-1.052c0.017-0.187-0.029-0.242,0.026-0.394c0.056-0.17,0.084-0.348,0.085-0.526
	c-0.004-0.164-0.028-0.326-0.074-0.482c-0.027-0.093-0.042-0.188-0.046-0.284c-0.051-0.081-0.086-0.17-0.101-0.263
	c0.006-0.112-0.042-0.219-0.132-0.287c-0.112-0.075-0.147-0.303-0.223-0.45c-0.075-0.147-0.164-0.153-0.164-0.283
	c0-0.13-0.287-0.304-0.373-0.416c-0.085-0.112-0.344-0.336-0.436-0.336h-0.222c-0.116,0-0.111-0.065-0.186-0.085
	c-0.111-0.031-0.231-0.009-0.324,0.061c-0.037,0.093-0.093,0.065-0.186,0.065c-0.079,0.008-0.156,0.038-0.221,0.085
	c-0.075,0.037-0.192,0.04-0.229,0.113c-0.037,0.073-0.178,0.125-0.251,0.144c-0.145,0.069-0.278,0.16-0.395,0.27
	c-0.154,0.132-0.813,0.59-1.252,1.282c-0.44,0.691-0.365,0.929-0.462,1.17c-0.108,0.269-0.162,0.492-0.235,0.696
	c-0.073,0.204-0.048,1.052-0.046,1.214C20.533,13.362,20.646,13.375,20.646,13.451z M47.979,24.961
	c-0.057-0.226-0.13-0.468-0.199-0.701c-0.177-0.558-0.374-1.07-0.499-1.201c-0.128-0.124-0.313-0.174-0.489-0.131
	c-0.186,0.052-4.18,0.946-4.18,0.946l-1.579,0.394c-1.349,0.337-3.143,0.789-3.591,0.895c-1.096,0.27-5.604,1.665-6.443,1.98
	c-0.046,0.019-0.196,0.05-0.188,0.143c0.011,0.094,0.063,0.087,0.122,0.162c0.059,0.077,0.257,0.205,0.489,0.451
	c0.161,0.171,0.288,0.405,0.396,0.499c0.081,0.069,0.141,0.161,0.175,0.263c0.02,0.073,0.083,0.105,0.104,0.159
	c0.02,0.053,0.033,0.095,0.086,0.22c0.043,0.106,0.1,0.209,0.17,0.301c0.083,0.115,0.669,0.634,0.751,0.867
	c0.104,0.178,0.224,0.346,0.36,0.501c0,0,0.088,0.192,0.142,0.313c0.188,0.429,0.511,1.314,0.553,1.332
	c-0.021-0.144-0.029-0.195,0-0.072c0.013,0.059,0.013,0.077,0,0.072c0.043,0.271,0.142,0.875,0.174,1.316h0.457
	c0.561-0.216,1.527-0.585,2.236-0.845c1.435-0.526,2.719-0.942,3.7-1.297c0.445-0.161-0.107-2.136-0.107-2.136
	s2.487-0.817,3.732-1.185c0.717-0.21,3.246-0.836,3.359-0.881c0.164-0.065,0.263-0.35,0.285-0.462
	C48.019,26.755,48.175,25.725,47.979,24.961L47.979,24.961z"/>
<path fill="#CF2725" d="M34.774,33.652h-0.457c0,0.061,0.009,0.119,0.011,0.173L34.774,33.652z M35.228,24.26
	c0.146-0.069,0.246-0.121,0.287-0.142c0.285-0.153,2.533-1.147,2.794-1.279c0.261-0.132,2.554-1.171,2.554-1.171
	s0.657-0.263,1.116-0.488c0.323-0.158,0.433-0.17,0.526-0.394c0.045-0.109-0.263-1.17-0.365-1.389
	c-0.104-0.218-0.34-0.903-0.688-1.425c-0.218-0.322-0.457-0.63-0.717-0.92c-0.083-0.066-0.188-0.099-0.295-0.089
	c-0.182,0.026-0.362,0.067-0.537,0.124c0,0-1.342,0.443-1.663,0.525c-0.318,0.082-8.019,2.605-9.037,2.996
	c-1.018,0.391-1.245,0.404-3.085,1.184c-0.409,0.177-0.625,0.221-0.643,0.363c0,0.088,0.068,0.116,0.186,0.192
	c0.162,0.104,0.505,0.356,0.62,0.413c0.201,0.131,0.388,0.287,0.553,0.463c0.082,0.145,0.19,0.275,0.318,0.382
	c0.175,0.11,0.33,0.251,0.454,0.415c0.058,0.067,0.149,0.155,0.245,0.246c0.19,0.178,0.402,0.357,0.402,0.357l0.196,0.088
	l0.262,0.322c0.067,0.048,0.127,0.104,0.178,0.167c0.066,0.088,0.486,0.506,0.486,0.506c0.104,0.079,0.198,0.166,0.285,0.263
	c0.101,0.098,0.189,0.209,0.263,0.329c0.056,0.13,0.145,0.24,0.262,0.319c0.133,0.088,0.248-0.057,0.396-0.124
	c0.147-0.066,1.13-0.583,1.314-0.658C32.015,25.794,34.367,24.678,35.228,24.26L35.228,24.26z M28.634,35.629
	c0.009-0.115-0.047-0.162-0.032-0.248c0.039-0.219-0.046-0.226-0.084-0.313c-0.055-0.118,0-0.132-0.041-0.262
	c-0.063-0.2-0.23-0.763-0.301-0.945c-0.025-0.063-0.056-0.131-0.081-0.212c-0.041-0.111-0.079-0.219-0.105-0.284
	c-0.022-0.08-0.039-0.159-0.051-0.238c-0.081-0.188-0.177-0.371-0.29-0.541c-0.039-0.093-0.076-0.253-0.103-0.292
	c-0.051-0.06-0.096-0.125-0.131-0.195c-0.015-0.062-0.043-0.12-0.085-0.17c-0.04-0.041-0.18-0.12-0.18-0.213s0.033-0.076-0.02-0.167
	c-0.053-0.093-0.159-0.187-0.199-0.276c-0.132-0.248-0.302-0.473-0.505-0.666c-0.076-0.067-0.231-0.117-0.263-0.209
	c-0.03-0.093-0.197-0.226-0.237-0.263c-0.042-0.038-0.094-0.052-0.122-0.101c-0.028-0.051-0.051-0.122-0.105-0.131
	c-0.046-0.008-0.085-0.034-0.109-0.074c-0.057-0.053-0.108-0.111-0.155-0.172c-0.071-0.095-0.167-0.17-0.277-0.22
	c-0.079-0.026-0.068-0.033-0.142-0.119c-0.045-0.051-0.032-0.059-0.132-0.043c-0.1,0.014-0.282,0.672-0.363,0.766
	c-0.087,0.101-0.145,0.224-0.168,0.354c-0.012,0.119-0.501,1.159-0.606,1.314c-0.093,0.148-0.168,0.308-0.221,0.475
	c-0.079,0.212-0.064,0.244-0.131,0.337c-0.096,0.132-0.175,0.274-0.234,0.427l-0.254,0.607l-0.058,0.099
	c-0.066,0.112-0.188,0.318-0.333,0.565c-0.225,0.383-0.212,0.514-0.291,0.58c-0.079,0.065-0.092,0.238-0.172,0.369
	c-0.08,0.13-0.131,0.263-0.223,0.394c-0.092,0.133-0.183,0.396-0.273,0.55c-0.044,0.151-0.108,0.295-0.189,0.428
	c-0.1,0.12-0.176,0.259-0.224,0.41c-0.046,0.136-0.113,0.263-0.198,0.378c-0.073,0.109-0.138,0.224-0.194,0.342
	c-0.105,0.187-0.291,0.552-0.423,0.735c-0.133,0.185-0.17,0.424-0.263,0.556c-0.094,0.131-0.053,0.165-0.145,0.245
	c-0.092,0.078-0.063,0.102-0.189,0.114c-0.126,0.013-0.189,0.064-0.176-0.055c0.013-0.121,0.022-0.179-0.045-0.179
	c-0.066,0-0.052-0.02-0.131,0.072c-0.078,0.091-0.092,0.055-0.194,0.093c-0.103,0.041,0.011,0.041-0.161,0.078
	c-0.172,0.039-0.109,0-0.201,0c-0.092,0-0.074,0.059-0.192,0.085s-0.203,0.042-0.203-0.038c0-0.081,0.046-0.008,0.02-0.111
	c-0.026-0.106,0-0.133-0.073-0.104c-0.073,0.03-0.132,0.054-0.187-0.012c-0.055-0.068-0.03-0.078-0.111-0.092
	c-0.08-0.013-0.152,0.012-0.204-0.028c-0.053-0.041-0.094-0.109-0.186-0.132c-0.099-0.019-0.202,0.004-0.287,0.059
	c-0.104,0.055-0.034,0.097-0.114,0.097s-0.117,0.061-0.144-0.032c-0.026-0.092,0-0.207-0.066-0.245
	c-0.065-0.04-0.115-0.009-0.22-0.009s-0.042-0.063-0.082-0.142c-0.04-0.078-0.065,0-0.171-0.072
	c-0.106-0.072-0.036-0.083-0.103-0.123c-0.067-0.041-0.132-0.009-0.208,0c-0.096,0.008-0.186-0.041-0.231-0.126
	c-0.055-0.148-0.082-0.305-0.077-0.462c0-0.055-0.025-0.072-0.105-0.059c-0.081,0.012-0.514,0.263-0.58,0.284
	c-0.066,0.022-1.895,1.105-2.026,1.224c-0.121,0.084-0.204,0.212-0.233,0.355c-0.036,0.31-0.041,0.623-0.013,0.934
	c0.067,0.477,0.196,0.942,0.383,1.388c0.131,0.246,0.403,0.694,0.682,0.908c0.102,0.098,0.233,0.16,0.375,0.175
	c0.12,0,0.883-0.446,1.262-0.617c0.379-0.174,2.124-1.082,2.347-1.185c0.223-0.103,3.895-1.94,4.066-2.031
	c0.17-0.093,3.55-1.684,3.714-1.776c0.165-0.094,2.702-1.304,2.761-1.33s0.131-0.063,0.106-0.149
	C28.668,35.862,28.636,35.746,28.634,35.629L28.634,35.629z"/>
</svg>
