<?xml version="1.0" encoding="utf-8"?>
<!-- Generator: Adobe Illustrator 16.0.0, SVG Export Plug-In . SVG Version: 6.00 Build 0)  -->
<!DOCTYPE svg PUBLIC "-//W3C//DTD SVG 1.1//EN" "http://www.w3.org/Graphics/SVG/1.1/DTD/svg11.dtd">
<svg version="1.1" id="Calque_1" xmlns="http://www.w3.org/2000/svg" xmlns:xlink="http://www.w3.org/1999/xlink" x="0px" y="0px"
	 width="30px" height="30px" viewBox="0 0 50 50" enable-background="new 0 0 50 50" xml:space="preserve">
<g id="Inté">
	<g id="V2-Map-filter" transform="translate(-13.000000, -63.000000)">
		<g id="basic-map-copy" transform="translate(13.000000, 63.000000)">
			<path id="Combined-Shape" fill="#c4c0c0" d="M30.972,14.031L20.234,9.716v27.001l10.778,4.33c-0.026-0.09-0.041-0.184-0.041-0.283V14.031z
				 M32.923,13.845v26.919c0,0.026,0,0.057-0.003,0.083l10.418-4.187v-27L32.923,13.845z M31.606,12.183
				c0.105-0.04,0.223-0.062,0.341-0.062c0.01,0,0.019,0,0.028,0l11.973-4.81c0.641-0.258,1.341,0.213,1.341,0.904v29.105
				c0,0.398-0.243,0.757-0.613,0.905l-12.595,5.063c-0.234,0.094-0.496,0.094-0.729,0l-12.249-4.922L5.6,43.299
				c-0.638,0.234-1.312-0.24-1.312-0.917V13.277c0-0.41,0.257-0.776,0.641-0.916l13.857-5.063c0.227-0.082,0.474-0.077,0.697,0.013
				L31.606,12.183z M18.281,36.589V9.562l-12.04,4.399v27.026L18.281,36.589z"/>
		</g>
	</g>
</g>
</svg>
