<?xml version="1.0" encoding="utf-8"?>
<!-- Generator: Adobe Illustrator 16.0.0, SVG Export Plug-In . SVG Version: 6.00 Build 0)  -->
<!DOCTYPE svg PUBLIC "-//W3C//DTD SVG 1.1//EN" "http://www.w3.org/Graphics/SVG/1.1/DTD/svg11.dtd">
<svg version="1.1" id="Calque_1" xmlns="http://www.w3.org/2000/svg" xmlns:xlink="http://www.w3.org/1999/xlink" x="0px" y="0px"
	 width="30px" height="30px" viewBox="0 0 50 50" enable-background="new 0 0 50 50" xml:space="preserve">
<g>
	<path fill="#CF2725" d="M38.442,28.808c-0.557-0.548-1.789-0.838-3.665-0.862c-1.271-0.015-2.798,0.098-4.405,0.323
		c-0.721-0.416-1.462-0.868-2.044-1.412c-1.567-1.463-2.875-3.494-3.69-5.727c0.053-0.208,0.098-0.392,0.141-0.579
		c0,0,0.882-5.012,0.648-6.707c-0.032-0.232-0.052-0.3-0.115-0.48l-0.076-0.197c-0.24-0.554-0.711-1.14-1.448-1.108l-0.434-0.014
		l-0.012,0c-0.823,0-1.493,0.421-1.669,1.05c-0.535,1.973,0.018,4.924,1.018,8.746l-0.256,0.624
		c-0.716,1.746-1.614,3.505-2.406,5.056l-0.103,0.202c-0.833,1.631-1.59,3.016-2.275,4.188l-0.708,0.375
		c-0.051,0.027-1.264,0.669-1.549,0.841c-2.414,1.441-4.013,3.077-4.278,4.375c-0.084,0.414-0.022,0.944,0.408,1.19l0.685,0.344
		c0.297,0.148,0.61,0.225,0.931,0.225c1.719,0,3.715-2.142,6.464-6.938c3.173-1.034,6.788-1.894,9.955-2.367
		c2.413,1.359,5.382,2.304,7.256,2.304c0.333,0,0.619-0.032,0.853-0.094c0.359-0.096,0.661-0.3,0.847-0.578
		c0.363-0.548,0.438-1.301,0.339-2.072C38.822,29.283,38.64,29.001,38.442,28.808z M12.767,37.954
		c0.313-0.857,1.554-2.552,3.389-4.055c0.115-0.094,0.399-0.36,0.659-0.607C14.897,36.352,13.612,37.571,12.767,37.954z
		 M23.633,12.931c0.553,0,0.867,1.393,0.893,2.699c0.026,1.306-0.279,2.222-0.658,2.9c-0.313-1.004-0.465-2.586-0.465-3.621
		C23.403,14.909,23.379,12.931,23.633,12.931z M20.392,30.764c0.385-0.689,0.785-1.417,1.194-2.188
		c0.998-1.887,1.628-3.362,2.097-4.575c0.933,1.698,2.095,3.142,3.461,4.298c0.17,0.144,0.352,0.289,0.541,0.434
		C24.908,29.282,22.506,29.95,20.392,30.764z M37.908,30.606c-0.17,0.105-0.654,0.167-0.966,0.167c-1.007,0-2.251-0.46-3.996-1.208
		c0.67-0.05,1.285-0.075,1.837-0.075c1.008,0,1.308-0.004,2.295,0.247C38.065,29.989,38.077,30.501,37.908,30.606z M40.943,12.92
		l-5.819-5.818c-1.267-1.267-3.77-2.304-5.562-2.304H10.012c-1.792,0-3.258,1.466-3.258,3.258v35.191
		c0,1.792,1.466,3.258,3.258,3.258h29.978c1.792,0,3.258-1.466,3.258-3.258V18.483C43.247,16.691,42.211,14.188,40.943,12.92z
		 M39.101,14.764c0.127,0.128,0.254,0.285,0.378,0.461h-6.657V8.567c0.177,0.123,0.333,0.25,0.46,0.378L39.101,14.764z
		 M40.641,43.247c0,0.354-0.298,0.652-0.651,0.652H10.012c-0.353,0-0.651-0.299-0.651-0.652V8.056c0-0.353,0.298-0.651,0.651-0.651
		h19.551c0.196,0,0.418,0.024,0.651,0.069v10.357h10.357c0.044,0.234,0.069,0.455,0.069,0.652V43.247z"/>
</g>
</svg>
