<!-- All svg element here  -->
<svg xmlns="http://www.w3.org/2000/svg" xmlns:xlink="http://www.w3.org/1999/xlink">
    <symbol id="c-arrow-left" viewBox="0 0 15 14" fill="currentColor" width="15px" height="14px">
        <path d="M14,6 L3.414,6 L7.536,1.88 C7.926,1.49 7.926,0.86 7.536,0.46 C7.145,0.07 6.512,0.07 6.121,0.46 L0.464,6.12 C0.225,6.36 0.15,6.69 0.205,7 C0.15,7.31 0.225,7.64 0.464,7.88 L6.121,13.54 C6.512,13.93 7.145,13.93 7.536,13.54 C7.926,13.15 7.926,12.51 7.536,12.12 L3.414,8 L14,8 C14.552,8 15,7.55 15,7 C15,6.45 14.552,6 14,6 L14,6 Z"></path>
    </symbol>
    <symbol id="c-running_man" viewBox="0 0 351.7 265.93" fill="#e2001a">
      <path d="M107.08,216.41c2.65-1,2-2,2.43-2.8s-.36-1.39.87-2.71c.82-.87,3-8,3-8s1.36-2.62,1.18-3.24.74-3,1.62-5.13h0a30.11,30.11,0,0,0,1.32-3.55,32.48,32.48,0,0,1,2.11-4.63c.38-.75.82-2.58,1.33-4.2.42-1.32,3-8.53,3-8.53s2.72-5.28,2.95-7.17c.07-.63,1.51-2.77,1.76-3.78s0-1.63.63-2.14a12.7,12.7,0,0,0,2.39-4.92c0-1,1.91-3.82,3.16-6.25,1.32-4.12,1.46-5.14,2.72-6.76,1-1.28,1.24-3.53,1.61-4.78a17.38,17.38,0,0,1,1.38-3.72c.64-1,1.82-3.54,2.2-4.16a10.56,10.56,0,0,0,.52-2.91c.13-.76,1.21-1.55,1.38-2.27.26-1.06.34-.87.34-1.39v-.27l0-1.26c.23-.59.82-1.4.43-2.22s-2.4.42-4.85,1.22c-.43.14-2.22,1-5,2.26h0c-15.61,7.39-61.72,30-61.72,30L30.75,174.92s-18,9.15-20.5,12.17c-1.22,1.47-1.47,3.73-.85,7.41h0q.42,2.43,1.35,5.8c2,7.34,3.57,11,4.93,11.92,3.39,2.19,11.85-3.62,20.12-6.87,18.52-7.24,27.6-9.71,27.6-9.71s2.14-.41,1,.39c-4,2.81-18.35,9.55-25.18,13.35-8.8,4.88-35,19-36.28,20.65s-3.23,2.76-2.9,6a49.41,49.41,0,0,0,4.28,13.64c2.14,4.52,5.68,8.95,8.44,9.83s3.65-1.26,7.94-3c1.33-.55,66-31.36,66-31.36S104.44,217.42,107.08,216.41Z"/><path d="M44.74,128.68a2.11,2.11,0,0,1,1.15.3,1.68,1.68,0,0,0,1.1.49c.36-.07.48-.07.66.3a3.65,3.65,0,0,0,.79,1.48c.55.49.92.43,1.16.85s.54.55.48,1.16-.12.91.06,1,.18.25.25.79-.31,1.51-.07,1.59.25-.08.25.36-.25.24-.25.48a.47.47,0,0,0,.25.37,1.91,1.91,0,0,0,.24,1.52,2,2,0,0,0,1.76-.06,2.52,2.52,0,0,1,1.22-.73c.79-.31,1.11-1.15,2-1.64s1.16-1.16,1.64-1.1,1.09-.79,1.52-.72,1-.43,1.51-.5a1.32,1.32,0,0,0,1-.42c.24-.31.3-.54.55-.54s.05-.13.48-.5.49-.65.86-.72.66-.73,1.26-1,1.28-.94,2.13-.94.4.09,1,.64a2.63,2.63,0,0,0,1.49.67c.73.17.85-.25,1,.29a.88.88,0,0,0,1.16.8c.78-.12,1-.67,1.82-1.09,5.11-2.69,11.2-5.65,17.86-8.73,23-10.61,52.64-22.61,72.12-29.58,10.34-3.69,15.82-5.91,34.21-11.93,30.29-8.94,55.49-16.06,72-19.82,0,0,3.67-.91,4.5-1a2.08,2.08,0,0,0,1.46-.6,3.46,3.46,0,0,0,.44-2.23c-.19-.7-.83-1.73-.63-2.24s1.27-3.08,1.33-3.53-.58-1.15-.84-1.34.21-1.58-.12-2.16a5.11,5.11,0,0,0-1.58-1.48c-.58-.38-.78-2.43-.78-2.8a7.49,7.49,0,0,0-.06-.84s.39-.25-.06-.57-.92-.43-1-1,.14-.46-.05-.84a1.42,1.42,0,0,0-.65-.71c-.19-.07-.06-.51-.13-1.15s-.13-1.09-.13-1.09l-1.4-1.09c-.25-.18-.25-.31-.31-.7s0-.63-.45-.83-2.11-.64-2.11-.64a3.76,3.76,0,0,0-1.66-.12,5.84,5.84,0,0,0-1.48.44,5.79,5.79,0,0,1-2.3.77c-.63,0-1,.25-1.54.05s-.44-.44-2.74.39-22,6.22-22,6.22-54.12,16-87,29.72c-10.83,4.5-55,22.87-96.85,48.7a5,5,0,0,0-1.71,1.57c-.07.15-.15.28-.21.42h0a3.07,3.07,0,0,1-.87,1.23,7.1,7.1,0,0,1-.92.54c-.3.18-.79.12-1.15.55s-.55.73-.85.79a2.87,2.87,0,0,0-.92.49c-.36.24-.66.36-.54,1S44.31,128.68,44.74,128.68Z"/><path d="M143.09,40.85c0,.57.32.94.81,1.61.35.47,0,.77.64,1.48s.23.48,1.15,1.3c.55.51.52,1.37,1.36,2.91a8.69,8.69,0,0,0,1.78,2.42,8,8,0,0,0,2.27,1.82c1.27.74.63,2,2.07,1.93a10.74,10.74,0,0,1,3.45-.09c.82.24.37.05,1.4.05s-.37-.16,1-.33.28,1,1.83,1.15a4.57,4.57,0,0,0,2.55.12c1.68-.28,2.86-.63,3.37-1.71,1-2.07,1.73-2.11,2.51-2.94s.92-.3,1.62-.58.92-2.15,1.71-2.66c1.23-.77,2.43-2.66,3.42-3.37s3.31-4.3,4.58-6.83,2.87-6.58,3-8-.22-1.84.2-3a12.9,12.9,0,0,0,.65-4,14.34,14.34,0,0,0-.57-3.67,10.35,10.35,0,0,1-.35-2.16,5.43,5.43,0,0,1-.77-2,2.52,2.52,0,0,0-1-2.18c-.85-.57-1.12-2.31-1.69-3.43s-1.25-1.16-1.25-2.15S176.65,4.18,176,3.33,173.38.78,172.68.78s-.75,0-1.64,0-.85-.5-1.42-.65a2.81,2.81,0,0,0-2.46.46c-.28.71-.71.5-1.41.5a3.39,3.39,0,0,0-1.68.65c-.57.28-1.46.3-1.74.86s-1.35.95-1.91,1.1a11.88,11.88,0,0,0-3,2.05c-1.17,1-6.18,4.49-9.53,9.75s-2.78,7.07-3.51,8.9c-.82,2.05-1.23,3.75-1.79,5.3s-.37,8-.35,9.24S143.09,40.28,143.09,40.85Z"/><path d="M351,128.41c-.44-1.71-1-3.55-1.52-5.33h0c-1.34-4.24-2.85-8.14-3.79-9.13a4,4,0,0,0-3.72-1c-1.41.39-31.81,7.19-31.81,7.19l-12,3h0c-10.27,2.57-23.9,6-27.32,6.8-8.34,2.05-42.63,12.66-49.05,15.06-.36.15-1.51.38-1.43,1.09s.47.66.92,1.24,1.95,1.55,3.73,3.42c1.22,1.31,2.18,3.09,3,3.8a4.35,4.35,0,0,1,1.33,2c.15.55.63.8.79,1.21s.26.72.66,1.66a9.82,9.82,0,0,0,1.3,2.31c.63.87,5.08,4.81,5.71,6.58a25.9,25.9,0,0,0,2.73,3.82s.67,1.45,1.08,2.38c1.43,3.26,3.89,10,4.21,10.14-.17-1.1-.23-1.49,0-.56.09.44.09.59,0,.56.33,2.06,1.07,6.65,1.32,10h3.48c4.26-1.63,11.61-4.45,17-6.42,10.92-4,20.69-7.17,28.15-9.86,3.39-1.23-.81-16.26-.81-16.26s18.92-6.21,28.39-9c5.45-1.6,24.7-6.36,25.55-6.7,1.25-.5,2-2.66,2.18-3.51S352.49,134.22,351,128.41Z"/><path d="M250.56,194.52h-3.48c0,.47.06.91.08,1.32Z"/><path d="M254,123.08c1.11-.53,1.88-.92,2.19-1.08,2.17-1.17,19.26-8.73,21.25-9.73s19.42-8.91,19.42-8.91,5-2,8.5-3.71c2.45-1.2,3.29-1.3,4-3.05.35-.83-2-8.9-2.78-10.56s-2.56-6.82-5.23-10.79a66.54,66.54,0,0,0-5.45-7,3.11,3.11,0,0,0-2.24-.68,26.29,26.29,0,0,0-4.09.94s-10.2,3.38-12.64,4-61,19.82-68.75,22.79-9.47,3.07-23.47,9c-3.11,1.34-4.75,1.68-4.89,2.76,0,.67.52.88,1.41,1.46,1.23.79,3.85,2.71,4.71,3.14a23.42,23.42,0,0,1,4.2,3.52,10.39,10.39,0,0,0,2.43,2.91,13.55,13.55,0,0,1,3.46,3.15c.43.51,1.13,1.18,1.86,1.87h0c1.45,1.36,3.06,2.72,3.06,2.72l1.49.67,2,2.45a7.36,7.36,0,0,1,1.35,1.27c.5.67,3.69,3.85,3.69,3.85a15.57,15.57,0,0,1,2.17,2,12.46,12.46,0,0,1,2,2.5,5.45,5.45,0,0,0,2,2.43c1,.67,1.88-.43,3-.94s8.6-4.44,10-5C229.56,134.75,247.46,126.26,254,123.08Z"/><path d="M203.84,209.56c.08-.88-.35-1.23-.24-1.89.3-1.66-.35-1.72-.64-2.37-.41-.9,0-1-.31-2-.48-1.51-1.75-5.8-2.3-7.19-.19-.47-.41-1-.61-1.6h0c-.3-.85-.6-1.67-.8-2.18a16.82,16.82,0,0,1-.39-1.81,27.43,27.43,0,0,0-2.19-4.12c-.31-.7-.59-1.91-.79-2.21a7.83,7.83,0,0,1-1-1.48,3.07,3.07,0,0,0-.65-1.3c-.3-.3-1.36-.91-1.36-1.62s.25-.57-.15-1.27-1.21-1.41-1.51-2.1a20.26,20.26,0,0,0-3.84-5.07c-.59-.51-1.77-.89-2-1.59s-1.5-1.72-1.81-2-.71-.38-.92-.76-.39-.93-.8-1a1.2,1.2,0,0,1-.84-.56,10.37,10.37,0,0,1-1.17-1.31,5.26,5.26,0,0,0-2.11-1.66c-.6-.21-.52-.27-1.08-.91-.34-.39-.24-.45-1-.34s-2.15,5.12-2.76,5.83a5.73,5.73,0,0,0-1.28,2.7c-.09.91-3.81,8.82-4.61,10a15.71,15.71,0,0,0-1.68,3.61c-.6,1.61-.49,1.86-1,2.56a14.6,14.6,0,0,0-1.78,3.24l-1.93,4.63-.44.75h0c-.51.85-1.43,2.42-2.54,4.3-1.71,2.91-1.61,3.91-2.21,4.41s-.7,1.82-1.31,2.81-1,2-1.7,3-1.39,3-2.08,4.18a13.07,13.07,0,0,1-1.44,3.25,9.52,9.52,0,0,0-1.7,3.12,10.42,10.42,0,0,1-1.51,2.88,22.57,22.57,0,0,0-1.48,2.6c-.8,1.41-2.21,4.19-3.22,5.59s-1.29,3.22-2,4.22-.4,1.26-1.1,1.86-.48.78-1.44.88-1.44.49-1.34-.42.17-1.36-.34-1.36-.4-.15-1,.55-.7.42-1.48.72.09.3-1.22.59-.83,0-1.53,0-.56.44-1.46.64-1.54.32-1.54-.29.35-.06.15-.86,0-1-.55-.77-1,.41-1.42-.1-.23-.59-.84-.69-1.16.09-1.56-.22-.71-.83-1.41-1a3.1,3.1,0,0,0-2.18.45c-.79.41-.26.72-.87.72s-.89.47-1.09-.23,0-1.57-.5-1.87-.88-.07-1.68-.07-.32-.47-.62-1.07-.49,0-1.3-.55-.28-.64-.79-.94-1-.07-1.58,0a1.79,1.79,0,0,1-1.76-.95,9.76,9.76,0,0,1-.59-3.53c0-.4-.19-.54-.8-.44s-3.91,2-4.41,2.17-14.37,8.4-15.37,9.3a4.34,4.34,0,0,0-1.77,2.71,35.15,35.15,0,0,0-.1,7.1,42.39,42.39,0,0,0,2.91,10.55c1,1.88,3.07,5.28,5.19,6.91a4.72,4.72,0,0,0,2.81,1.29c.91,0,6.72-3.39,9.6-4.7s16.15-8.22,17.85-9,29.63-14.76,30.93-15.46,27-12.8,28.25-13.51,20.56-9.91,21-10.11,1-.48.82-1.14S203.74,210.76,203.84,209.56Z"/>
    </symbol>
    <symbol id="c-user" viewBox="0 0 111.577 111.577" fill="currentColor">
      <path d="M78.962,99.536l-1.559,6.373c-4.677,1.846-8.413,3.251-11.195,4.217c-2.785,0.969-6.021,1.451-9.708,1.451
        c-5.662,0-10.066-1.387-13.207-4.142c-3.141-2.766-4.712-6.271-4.712-10.523c0-1.646,0.114-3.339,0.351-5.064
        c0.239-1.727,0.619-3.672,1.139-5.846l5.845-20.688c0.52-1.981,0.962-3.858,1.316-5.633c0.359-1.764,0.532-3.387,0.532-4.848
        c0-2.642-0.547-4.49-1.636-5.529c-1.089-1.036-3.167-1.562-6.252-1.562c-1.511,0-3.064,0.242-4.647,0.71
        c-1.59,0.47-2.949,0.924-4.09,1.346l1.563-6.378c3.829-1.559,7.489-2.894,10.99-4.002c3.501-1.111,6.809-1.667,9.938-1.667
        c5.623,0,9.962,1.359,13.009,4.077c3.047,2.72,4.57,6.246,4.57,10.591c0,0.899-0.1,2.483-0.315,4.747
        c-0.21,2.269-0.601,4.348-1.171,6.239l-5.82,20.605c-0.477,1.655-0.906,3.547-1.279,5.676c-0.385,2.115-0.569,3.731-0.569,4.815
        c0,2.736,0.61,4.604,1.833,5.597c1.232,0.993,3.354,1.487,6.368,1.487c1.415,0,3.025-0.251,4.814-0.744
        C76.854,100.348,78.155,99.915,78.962,99.536z M80.438,13.03c0,3.59-1.353,6.656-4.072,9.177c-2.712,2.53-5.98,3.796-9.803,3.796
        c-3.835,0-7.111-1.266-9.854-3.796c-2.738-2.522-4.11-5.587-4.11-9.177c0-3.583,1.372-6.654,4.11-9.207
        C59.447,1.274,62.729,0,66.563,0c3.822,0,7.091,1.277,9.803,3.823C79.087,6.376,80.438,9.448,80.438,13.03z"/>
    </symbol>
    <symbol id="c-DRTB-icon" viewBox="0 0 24 24">
      <path fill="currentColor" d="M3.1771738,17.8919839 L3.56729686,17.4197363 C3.69358418,17.2672087 3.78803337,17.0944611 3.84886907,16.9065191 L5.30632186,12.3874967 C5.34372279,12.2714355 5.36727591,12.1511667 5.37638943,12.0300797 L5.5964158,9.12188817 C5.61440612,8.88415561 5.66849544,8.65133198 5.75738183,8.42949501 L7.00311705,5.3197103 L5.53911068,5.88396666 C5.49512961,5.90080385 5.45007873,5.90909091 5.40585992,5.90909091 C5.23789977,5.90909091 5.0811132,5.79307211 5.02263026,5.60759987 C4.94905111,5.37345762 5.06078681,5.11761117 5.27237142,5.036056 L7.18816313,4.29771866 C7.26480715,4.26827156 7.34402475,4.26569875 7.41739745,4.28552354 L7.81597176,3.2905446 C7.89708064,3.04407589 8.01517037,2.81932293 8.16223742,2.62038116 C8.13898467,2.59474796 8.11886471,2.56484852 8.10293276,2.53106077 L7.67337763,1.62000839 C7.58948166,1.4421747 7.65303334,1.22333516 7.81520639,1.1314438 C7.97737943,1.03965867 8.17694722,1.10892245 8.26074631,1.2869686 L8.65574018,2.12471928 C9.14286009,1.76038783 9.7629825,1.58132925 10.3915417,1.65128463 L10.7916977,0.261717641 C10.8485644,0.0641103631 11.039744,-0.0453049074 11.2180987,0.0179250228 C11.3965529,0.0807150926 11.4952743,0.291848077 11.438507,0.48956532 L11.05499,1.82135243 C11.6004939,2.04572938 12.0251053,2.4511187 12.2792092,2.94265365 L14.1880915,2.20680555 C14.399443,2.12552653 14.6308835,2.24902329 14.7045831,2.48312791 C14.7782827,2.71723253 14.6665446,2.97316937 14.4548365,3.05457991 L12.5391223,3.7930616 C12.5372388,3.79379379 12.5353538,3.79450934 12.5334674,3.79520832 C12.5654178,4.11021147 12.5342453,4.43646848 12.4309628,4.7567958 C12.4267019,4.77012005 12.4216125,4.78332741 12.415813,4.79630102 L12.3240498,5.00234811 L13.3234465,5.26802161 C13.5598235,5.3308128 13.6903109,5.54158042 13.6150702,5.73884574 C13.5540357,5.89823876 13.3773778,6 13.1871713,6 C13.1420532,6 13.0960143,5.99440149 13.0508961,5.98221648 L12.0108008,5.70572393 L10.9634496,8.0574681 C10.9185921,8.15821809 10.8843869,8.26411076 10.8620173,8.37222414 L9.42847272,15.2724292 C9.3816032,15.499292 9.30100182,15.7177394 9.18927245,15.9213432 L8.85965477,16.5229222 C8.86223643,16.5264927 8.86478047,16.5301216 8.86728565,16.5338088 L9.73381905,17.809519 C9.86664616,18.0050164 9.83969737,18.2899674 9.6736071,18.4461796 C9.60257053,18.5130707 9.51777767,18.5454545 9.43343584,18.5454545 C9.32056662,18.5454545 9.20871221,18.4871902 9.13271435,18.3753068 L8.41978131,17.325727 L7.45256853,19.0909688 C7.57916663,19.0933919 7.70077083,19.1695126 7.76295294,19.3007715 L8.68743333,21.2515541 C8.77773336,21.4419465 8.70933057,21.6762406 8.53477832,21.7747351 C8.48264205,21.8039649 8.42675197,21.8181818 8.37159179,21.8181818 C8.24281519,21.8181818 8.11841805,21.7414107 8.05522888,21.6081133 L7.13608128,19.6685837 L6.25448283,21.2775723 C6.23773755,21.326773 6.2194892,21.3752195 6.19978006,21.4228623 C6.21368066,21.4397008 6.2262185,21.4578356 6.23717484,21.4772048 L7.04456761,22.9025697 C7.14960517,23.0881497 7.07006806,23.3163853 6.86679306,23.4122221 C6.8060777,23.4406962 6.74099084,23.4545455 6.676754,23.4545455 C6.52678708,23.4545455 6.38192024,23.3797595 6.30833324,23.2499089 L5.70120489,22.1780893 C5.52024523,22.3626861 5.30806009,22.5189428 5.07019888,22.6403853 C4.72116296,22.8189769 4.34194592,22.9090909 3.96000665,22.9090909 C3.71252136,22.9090909 3.46408922,22.8714558 3.2216933,22.7950167 C3.14215714,22.7700045 3.06475142,22.7411353 2.98959448,22.7089935 C2.86236206,22.6544129 2.74201656,22.5890098 2.62947852,22.5138719 L1.94759316,23.306867 C1.86470022,23.4033896 1.73576944,23.4545455 1.60510138,23.4545455 C1.51848571,23.4545455 1.43124958,23.4321253 1.35580211,23.3856008 C1.16668709,23.268658 1.1254888,23.04393 1.26310597,22.8837258 L1.89485546,22.1490359 L0.490864361,22.3587687 C0.468460061,22.3619742 0.446429166,22.3636364 0.42452274,22.3636364 C0.218901055,22.3636364 0.0381730359,22.2208109 0.00518892776,22.0209978 C-0.0311558253,21.799933 0.127292362,21.5925215 0.359301334,21.557854 L1.75230657,21.3497623 C1.73449994,21.2951414 1.71861153,21.2395339 1.70470675,21.183017 C1.56651475,20.6220091 1.64083395,20.0299987 1.90101037,19.5233135 L0.807048543,19.2084266 C0.609646102,19.151554 0.500332439,18.9606527 0.563237283,18.7819811 C0.626142128,18.6033094 0.837071309,18.5046771 1.03491364,18.5615498 L2.31876589,18.9310948 L2.71726384,18.4487092 C2.68993192,18.4209271 2.66645259,18.387582 2.64836904,18.3492266 L2.21883073,17.4380997 C2.13493804,17.2602515 2.19848724,17.0413941 2.36065393,16.9494952 C2.52282063,16.8579151 2.72218685,16.9271845 2.80617642,17.1050327 L3.1771738,17.8919839 Z M8.70196673,14.7990956 L10.0704432,8.2118657 C10.104175,8.04858528 10.1558972,7.88857747 10.223716,7.73616682 L11.6670842,4.49533674 C11.9241565,3.66233775 11.4541593,2.77463923 10.6115731,2.50967379 C10.4490684,2.45894816 10.2844333,2.43463726 10.1222837,2.43463726 C9.43734952,2.43463726 8.80011339,2.86825958 8.5815073,3.54627657 C8.57866673,3.55480877 8.57558943,3.56345784 8.57215707,3.57199003 L6.50859613,8.72321277 C6.44965416,8.86989633 6.41391023,9.02406017 6.40219285,9.18126287 L6.18216648,12.0893375 C6.1682003,12.2722537 6.13269309,12.4542348 6.07611826,12.6295538 L4.61866547,17.14881 C4.5269385,17.4328267 4.38396279,17.6937014 4.19328905,17.9243043 L2.80696904,19.6024578 C2.48870604,19.9880427 2.36987523,20.5085063 2.4896529,20.9946075 C2.59996198,21.4423722 2.89952451,21.8004905 3.3114082,21.977212 C3.36171009,21.9988347 3.41343226,22.0180029 3.46657473,22.0347166 L3.46681144,22.0347166 C3.8782217,22.1639852 4.31555222,22.1276357 4.69914849,21.9317459 C5.08262641,21.7360899 5.36597398,21.4046202 5.49687724,20.9984645 C5.50457047,20.974738 5.51451249,20.9515959 5.52658494,20.9296226 L8.43001783,15.6305852 C8.28476099,15.7502178 8.1003475,15.8181818 7.90852338,15.8181818 C7.82655205,15.8181818 7.74290295,15.8056014 7.66069195,15.779482 C7.2309417,15.642655 6.99269756,15.1817323 7.12955611,14.7519612 C7.19606793,14.5434857 7.33939791,14.3735901 7.53354052,14.273426 C7.72804265,14.1730222 7.94950904,14.1546908 8.15755322,14.220708 C8.43632063,14.309464 8.63450672,14.534592 8.70196673,14.7990956 Z M21.6056995,19.6500686 L21.7991904,19.8351429 C21.8230452,19.8579512 21.846214,19.8813849 21.8686831,19.9054066 L22.398187,19.6687904 C22.5773224,19.5889237 22.7907738,19.6616203 22.874937,19.8316108 C22.9591002,20.0016014 22.8823879,20.2040564 22.7033574,20.2840227 L22.2366043,20.4925978 C22.332537,20.7394226 22.3762428,21.0073306 22.3604888,21.2763918 L23.5879634,21.3122845 C23.8208036,21.3190625 24.0053207,21.5599876 23.9998828,21.850207 C23.9944449,22.1364211 23.8067145,22.3636364 23.5784471,22.3636364 L23.5683129,22.3636364 L22.2302236,22.3245091 C22.148694,22.3220819 22.073074,22.2909843 22.0094599,22.2391326 C21.9015397,22.380344 21.771157,22.5040669 21.6213672,22.6053517 L22.2362171,23.2365429 C22.4119942,23.4169892 22.4049685,23.7027399 22.2209498,23.8751164 C22.1315075,23.9587249 22.0169349,24 21.9027677,24 C21.7810343,24 21.6595711,23.9530363 21.5689128,23.8600351 L20.8547256,23.1268729 C20.7926545,23.0631996 20.7533614,22.9863622 20.7366143,22.9060132 C20.7021773,22.9080647 20.6676915,22.9090909 20.6331935,22.9090909 C20.4368932,22.9090909 20.2399546,22.8758727 20.0491173,22.8090208 L19.7922808,23.7011015 C19.739146,23.8855986 19.6002759,24 19.452303,24 C19.411658,24 19.3703781,23.9914034 19.3300507,23.973152 C19.1422796,23.8887727 19.0447953,23.63008 19.1123252,23.3955902 L19.3968183,22.4074486 C19.2470451,22.2626205 19.1220153,22.0908795 19.0275661,21.8976348 L18.4166919,21.0414447 L18.0850111,22.1135806 C18.0374391,22.2677079 17.9125152,22.3636364 17.7794088,22.3636364 C17.7428735,22.3636364 17.7058625,22.3564445 17.6695176,22.3411756 C17.5006371,22.2705846 17.4131047,22.0541647 17.4738065,21.8579926 L17.9149889,20.4319001 C17.9215406,20.410703 17.929553,20.3906054 17.9388468,20.3717058 L17.2623328,19.4235164 L16.9732795,19.9931175 C16.9115225,20.1144577 16.8028225,20.1818182 16.6917175,20.1818182 C16.6339045,20.1818182 16.5754181,20.1636343 16.5224148,20.1255511 C16.3670603,20.0142748 16.3172314,19.7742246 16.4109251,19.5895266 L16.8140285,18.7951813 L16.526164,18.3917157 C16.4240801,18.2487823 16.3435908,18.0918727 16.2866594,17.9250976 L14.6676364,13.1811665 C14.6448869,13.1146914 14.6152087,13.0505652 14.5792945,12.9901972 L14.0498503,12.1041019 C14.0188682,12.1302072 13.9828913,12.1524695 13.9424158,12.1696362 L13.1399393,12.5098299 C13.0824277,12.5340195 13.0219855,12.5454545 12.9626423,12.5454545 C12.8063474,12.5454545 12.6562799,12.4659587 12.5852146,12.3300572 C12.4872861,12.1423679 12.576423,11.918944 12.7848569,11.830542 L13.5873334,11.4903483 C13.613688,11.4792051 13.6406723,11.4707516 13.6679045,11.4648649 L13.2824594,10.8197713 C13.2751842,10.8075568 13.2687173,10.7951073 13.2625969,10.7823056 C13.1183898,10.4707891 13.0646057,10.1320829 13.1028368,9.79841071 L11.7727201,9.52199025 C11.5570706,9.47717333 11.4183637,9.26485173 11.462848,9.04758969 C11.507449,8.83032764 11.7183115,8.69140697 11.9337275,8.73540048 L13.3182275,9.02312271 C13.3345375,9.02651414 13.3504076,9.03086477 13.3657917,9.03610416 C13.5461133,8.74259613 13.8055016,8.50740241 14.1207253,8.35654921 C14.2413403,8.29872967 14.3661009,8.25520702 14.4930724,8.22605986 L14.2142388,7.60194066 C14.1343872,7.42279846 14.2070701,7.20954892 14.3770288,7.12517263 C14.5469874,7.04079634 14.7493049,7.11761655 14.8293558,7.29675875 L15.2402634,8.21650231 C15.2406331,8.21733069 15.2409996,8.2181598 15.2413627,8.21898962 C15.3254174,8.23655717 15.408813,8.26036205 15.4910055,8.29042638 C15.6421186,8.34570156 15.7831027,8.41993499 15.9114466,8.51082402 L16.1187839,7.91511335 C16.1948754,7.69632229 16.4281591,7.58230442 16.6396171,7.66156225 C16.8513137,7.74020377 16.9610381,7.98130535 16.8849466,8.19984988 L16.6084888,8.99415387 C16.5822905,9.06928775 16.537595,9.13200727 16.4816368,9.17879081 C16.4877899,9.19111462 16.4938178,9.20352765 16.4997192,9.21602849 L16.8332319,9.82461432 C16.8364442,9.82519476 16.8396586,9.82581535 16.8428746,9.82647642 L18.2274243,10.1142407 C18.4430815,10.159281 18.5817933,10.3714292 18.5370739,10.5885166 C18.497959,10.7784387 18.3322755,10.9090909 18.1470928,10.9090909 C18.1203546,10.9090909 18.0932661,10.9062685 18.0661776,10.9006238 L17.3402121,10.7497394 L18.3839987,12.6544154 C18.4709548,12.8132042 18.5336602,12.9837376 18.5702672,13.161318 L18.9891114,15.1964446 C19.0049321,15.272433 19.0290674,15.3466597 19.0616326,15.4167758 L20.4781045,18.4759254 C20.5309941,18.5898493 20.6032843,18.6912063 20.6933584,18.7774126 L20.9565128,19.0291203 L21.0278726,18.8240822 C21.1039668,18.6052714 21.3367817,18.4916131 21.5487244,18.5705083 C21.76019,18.6491569 21.8701569,18.8902801 21.7940627,19.1088443 L21.6056995,19.6500686 Z M20.7732515,19.9548318 L20.1529142,19.361478 C19.990319,19.2060952 19.8598271,19.0231123 19.764672,18.8174621 L18.3482,15.7585474 C18.289421,15.6318218 18.2455387,15.4979318 18.2171308,15.3608709 L17.7982865,13.3259791 C17.7780776,13.2276757 17.7433182,13.1330132 17.6950478,13.0448102 L17.4128224,12.5297649 C17.4105697,12.5365746 17.4082254,12.5433681 17.4057896,12.550144 C17.3318003,12.7559628 17.1821401,12.920001 16.9848353,13.0133765 C16.8727303,13.0660931 16.7543194,13.0909091 16.6378704,13.0909091 C16.3308428,13.0909091 16.0358666,12.9171969 15.8967163,12.6216478 C15.803529,12.4238206 15.792879,12.2017382 15.8668683,11.9961998 C15.9408576,11.7906614 16.0905178,11.6263428 16.2878226,11.5329673 C16.4619918,11.4509485 16.6542166,11.4331845 16.8376212,11.4800554 L15.8047633,9.59514836 C15.8003751,9.58716194 15.7962179,9.57894063 15.7925225,9.57071932 C15.6781978,9.32396256 15.476455,9.13722136 15.2241323,9.04479034 C14.971694,8.95259422 14.6993933,8.96563087 14.4565398,9.08190369 C14.2139173,9.19817651 14.0303049,9.40335693 13.9394225,9.65997926 C13.8507342,9.91072923 13.8610119,10.1807406 13.9678304,10.4230343 L15.2528867,12.5737291 C15.3179016,12.6823679 15.3715996,12.7981709 15.4123639,12.9180846 L16.958479,17.4483868 C17.0296536,17.2522902 17.1751923,17.0831639 17.3783286,16.9875764 C17.575885,16.8943784 17.7979783,16.8838673 18.0038071,16.957725 C18.2096359,17.0318629 18.3739624,17.1814002 18.4670621,17.3791481 C18.5601618,17.5764756 18.5706776,17.7984691 18.4967867,18.0042054 C18.4226154,18.2099417 18.273011,18.3741945 18.0751741,18.4672523 C17.965109,18.5191068 17.8466312,18.5454545 17.7277329,18.5454545 C17.6861088,18.5454545 17.6444011,18.5422244 17.6029451,18.5357641 L19.6860304,21.4554458 C19.7005808,21.4758816 19.7132836,21.497257 19.7236767,21.5201592 C19.7892464,21.6619303 19.882987,21.7811951 19.9949281,21.8743476 C20.0080849,21.8833943 20.0206542,21.8933758 20.0326007,21.9041991 C20.3203656,22.1212068 20.7136763,22.1746011 21.0596594,22.0090923 C21.0913008,21.9940591 21.1215565,21.9773815 21.1507728,21.9595295 C21.2606449,21.8923425 21.351396,21.8047649 21.4204095,21.7011253 C21.3970606,21.7150677 21.3728906,21.7279375 21.3479541,21.7396749 C21.2379283,21.7918259 21.1197733,21.8181818 21.0009174,21.8181818 C20.9075707,21.8181818 20.8138035,21.8019197 20.7234002,21.7693954 C20.5179253,21.6953745 20.3536575,21.5456506 20.2603108,21.3482617 C20.1671043,21.1504523 20.1565923,20.9283898 20.2304567,20.7228698 C20.3044613,20.5173499 20.4541524,20.3530461 20.651498,20.2596789 C20.7676372,20.205046 20.8902409,20.1801558 21.0106503,20.1819041 L20.9753549,20.1481441 C20.8853101,20.1087095 20.8155467,20.0390078 20.7732515,19.9548318 Z M16.7670714,12.3199298 C16.7794029,12.2854397 16.7777214,12.2467435 16.7621668,12.2135153 C16.7386247,12.1634626 16.6884578,12.1340199 16.6363289,12.1340199 C16.6164303,12.1340199 16.5963915,12.1383662 16.5774738,12.147199 C16.5439825,12.1627616 16.517918,12.1915033 16.5057266,12.2259934 C16.4935352,12.2603433 16.4952168,12.2991797 16.5107714,12.3324079 C16.5260457,12.3652155 16.5549127,12.3915738 16.589385,12.4037715 C16.6238573,12.4159692 16.6625335,12.4142868 16.6953242,12.3987242 C16.7288156,12.3831616 16.75488,12.3544199 16.7670714,12.3199298 Z M17.7867614,17.8529864 C17.8561656,17.8204722 17.8857499,17.7373648 17.8533613,17.6684123 L17.6016837,17.7865565 C17.6169667,17.8194912 17.64585,17.8455586 17.6803418,17.8580317 C17.7149737,17.8702245 17.7532511,17.8682624 17.7867614,17.8529864 Z M21.1308459,21.0468512 C21.1430399,21.0123642 21.1413579,20.9736715 21.12566,20.940306 C21.1102424,20.9073611 21.0815095,20.8812856 21.0470301,20.8688086 C21.0321731,20.8634814 21.016335,20.8606776 21.0003568,20.8606776 C20.9800335,20.8606776 20.9597103,20.8653039 20.9407887,20.8738555 C20.907851,20.8892765 20.8817812,20.9181558 20.869307,20.9526428 C20.8568327,20.9869896 20.8587949,21.0258225 20.8743527,21.0590478 C20.9070101,21.1281619 20.9899849,21.1585833 21.0590839,21.1254983 C21.0925822,21.1100773 21.118652,21.0813381 21.1308459,21.0468512 Z M8.70300776,6.03857063 C9.13275801,6.17544555 9.37100215,6.63652947 9.23402376,7.06645097 L9.23402376,7.06669068 C9.12317072,7.41403178 8.80043859,7.63636364 8.45397792,7.63636364 C8.3720066,7.63636364 8.28859718,7.62377881 8.20614649,7.59765033 C7.77639624,7.4607754 7.5381521,6.99981134 7.67501066,6.5700097 C7.8121089,6.13984848 8.27325752,5.90193542 8.70300776,6.03857063 Z M4.33916908,19.1296833 C4.76905423,19.2665203 5.00730672,19.7277159 4.87044337,20.1572785 L4.87044337,20.1575182 C4.75982615,20.5050025 4.43708271,20.7272727 4.09037021,20.7272727 C4.00839601,20.7272727 3.92474398,20.7146914 3.84253009,20.6885702 C3.41276479,20.5517332 3.1745123,20.0907772 3.31137565,19.660975 C3.44835885,19.2310529 3.90928393,18.9924869 4.33916908,19.1296833 Z"></path>
    </symbol>
    <symbol id="c-HIV-icon" viewBox="0 0 24 24">
        <path fill="currentColor" d="M22.6669997,10.696383 C22.1045465,10.696383 21.6234024,11.0470285 21.428013,11.540812 L19.6932883,11.540812 C19.5893716,9.78172065 18.8930972,8.17957934 17.8012227,6.9314063 L19.0321957,5.70043326 C19.1977458,5.7724257 19.377564,5.81112571 19.5635065,5.81112571 C19.9195596,5.81112571 20.2543081,5.67248325 20.5061188,5.42067258 C21.0258977,4.90089366 21.0258977,4.05522678 20.5061188,3.53544786 C20.2543733,3.28363719 19.9196247,3.14499473 19.5635065,3.14499473 C19.2073882,3.14499473 18.8726396,3.28363719 18.6208941,3.53544786 C18.2232091,3.93313281 18.1309546,4.52132084 18.3419152,5.0086543 L17.1126361,6.23793339 C15.8720858,5.13596039 14.2747657,4.42763294 12.518085,4.31049048 L12.518085,2.57198701 C13.0118033,2.37653242 13.3624488,1.89538836 13.3624488,1.33300034 C13.3624488,0.597960757 12.7644229,0 12.0294485,0 C11.2944741,0 10.6964482,0.598025909 10.6964482,1.33300034 C10.6964482,1.89545351 11.0470937,2.37653242 11.540812,2.57198701 L11.540812,4.30671169 C9.78172065,4.41062839 8.17957934,5.1069028 6.93147145,6.19877732 L5.69971659,4.96708762 C5.91067725,4.47975416 5.81835753,3.89156613 5.42067258,3.49388119 C5.16892706,3.24207052 4.83417849,3.10342806 4.47806022,3.10342806 C4.12194195,3.10342806 3.78719338,3.24207052 3.53544786,3.49388119 C3.01573409,4.0136601 3.01573409,4.85932698 3.53544786,5.3791059 C3.78719338,5.63091657 4.12194195,5.76955903 4.47806022,5.76955903 C4.66406784,5.76955903 4.84382092,5.73085902 5.00937096,5.65886658 L6.23786824,6.88736386 C5.13589524,8.12791417 4.42756778,9.72523427 4.31042533,11.481915 L2.57198701,11.481915 C2.37653242,10.9881967 1.89538836,10.6375512 1.33300034,10.6375512 C0.597960757,10.6375512 0,11.2355771 0,11.9705515 C0,12.7055911 0.598025909,13.303617 1.33300034,13.303617 C1.89545351,13.303617 2.37659757,12.9529715 2.57198701,12.459188 L4.30671169,12.459188 C4.41062839,14.2182793 5.1069028,15.8204207 6.19877732,17.0685937 L4.96773913,18.2995016 C4.80218909,18.2275091 4.62237086,18.1888091 4.43642839,18.1888091 C4.08037527,18.1888091 3.7456267,18.3274516 3.49381603,18.5792623 C2.97410227,19.0990412 2.97410227,19.9447081 3.49381603,20.464487 C3.74556155,20.7162977 4.08031012,20.8549401 4.43642839,20.8549401 C4.79254666,20.8549401 5.12729523,20.7162977 5.37904075,20.464487 C5.7767257,20.066802 5.86898027,19.478614 5.65808476,18.9912806 L6.88729871,17.7620666 C8.12784902,18.8640396 9.72516912,19.5723019 11.481915,19.6895095 L11.481915,21.428013 C10.9881316,21.6234676 10.637486,22.1046116 10.637486,22.6669997 C10.637486,23.4020392 11.2355119,24 11.9705515,24 C12.7055911,24 13.3035518,23.4019741 13.3035518,22.6669997 C13.3035518,22.1045465 12.9529063,21.6234676 12.459188,21.428013 L12.459188,19.6932883 C14.2182142,19.5893716 15.8204207,18.8930972 17.0685286,17.8012227 L18.3002183,19.0329124 C18.0893227,19.5202458 18.1815773,20.1084339 18.5792623,20.5061188 C18.8310078,20.7579295 19.1657564,20.8965719 19.5218746,20.8965719 C19.8779929,20.8965719 20.2127415,20.7579295 20.464487,20.5061188 C20.9842659,19.9863399 20.9842659,19.140673 20.464487,18.6208941 C20.2127415,18.3690834 19.8779929,18.230441 19.5218746,18.230441 C19.3579534,18.230441 19.1989836,18.2611273 19.0501124,18.3174183 L18.5489017,17.8162075 L18.5072698,17.8578394 L17.7620666,17.1126361 C18.8640396,15.8720858 19.5723019,14.2748309 19.6895095,12.518085 L21.428013,12.518085 C21.6234676,13.0118033 22.1046116,13.3624488 22.6669997,13.3624488 C23.4020392,13.3624488 24,12.7644229 24,12.0294485 C24,11.2943438 23.4019741,10.696383 22.6669997,10.696383 L22.6669997,10.696383 Z M19.3119564,4.22651016 C19.3791276,4.15933893 19.4685155,4.12226771 19.5635065,4.12233286 C19.6584974,4.12233286 19.7478853,4.15933893 19.8150565,4.22651016 C19.9537641,4.36521777 19.9537641,4.59090267 19.8150565,4.72961029 C19.7478853,4.79684667 19.6584974,4.83385274 19.5635065,4.83385274 C19.4685155,4.83385274 19.3791276,4.79684667 19.3119564,4.72967544 C19.1732488,4.59096783 19.1732488,4.36521777 19.3119564,4.22651016 L19.3119564,4.22651016 Z M12.0294485,0.977207823 C12.2256198,0.977207823 12.3851759,1.13682907 12.3851759,1.33293519 C12.3851759,1.5290413 12.2255546,1.68866255 12.0294485,1.68866255 C11.8333424,1.68866255 11.6737211,1.5290413 11.6737211,1.33293519 C11.6737211,1.13682907 11.8332772,0.977207823 12.0294485,0.977207823 Z M4.22657531,4.68804361 C4.0878677,4.549336 4.0878677,4.32358594 4.22657531,4.18487833 C4.29381169,4.1177071 4.38313444,4.08063588 4.47812537,4.08070103 C4.57311631,4.08070103 4.66250421,4.1177071 4.72967544,4.18487833 C4.86838305,4.32358594 4.86838305,4.54927085 4.72967544,4.68804361 C4.66243906,4.75521484 4.57311631,4.79228606 4.47812537,4.79228606 C4.38313444,4.79228606 4.29374654,4.75521484 4.22657531,4.68804361 Z M1.33293519,12.3262789 C1.13676392,12.3262789 0.977207823,12.1666576 0.977207823,11.9704864 C0.977207823,11.7743151 1.13682907,11.614759 1.33293519,11.614759 C1.5290413,11.614759 1.68866255,11.7743802 1.68866255,11.9704864 C1.6887277,12.1667228 1.52910645,12.3262789 1.33293519,12.3262789 Z M4.68804361,19.7734247 C4.62087238,19.8405959 4.53148448,19.8776671 4.43649354,19.8776671 C4.34150261,19.8776671 4.25211471,19.8406611 4.18494348,19.7734247 C4.04623587,19.6347171 4.04623587,19.408967 4.18494348,19.2703246 C4.25211471,19.2030882 4.34150261,19.1660821 4.43649354,19.1660821 C4.53148448,19.1660821 4.62087238,19.2030882 4.68804361,19.2702594 C4.82668607,19.4090322 4.82668607,19.6347171 4.68804361,19.7734247 Z M11.9705515,23.022727 C11.7743802,23.022727 11.614759,22.8631058 11.614759,22.6669997 C11.614759,22.4708936 11.7743802,22.3112723 11.9705515,22.3112723 C12.1667228,22.3112723 12.3262789,22.4708936 12.3262789,22.6669997 C12.3262789,22.8631058 12.1667228,23.022727 11.9705515,23.022727 Z M19.7734247,19.8150565 C19.7061883,19.8822277 19.6168656,19.919299 19.5218746,19.919299 C19.4268837,19.919299 19.3374958,19.8822929 19.2703246,19.8150565 C19.183673,19.7284701 19.1511624,19.6078746 19.1727276,19.4957489 L19.4541822,19.2142942 C19.4762686,19.2100594 19.4988761,19.2077139 19.5218746,19.2077139 C19.6168656,19.2077139 19.7062535,19.24472 19.7734247,19.3118912 C19.9121323,19.450664 19.9121323,19.6763489 19.7734247,19.8150565 Z M17.0701573,16.4207269 L14.7058734,14.0563778 C14.5150446,13.8654838 14.20564,13.865549 14.0148763,14.0563778 C13.8240474,14.2472066 13.8240474,14.5566113 14.0148763,14.7473749 L16.3761632,17.1086619 C15.3075478,18.0253439 13.9492035,18.6130759 12.4592531,18.7139956 L12.4592531,15.3674221 C12.4592531,15.0975644 12.2404743,14.8787856 11.9706167,14.8787856 C11.700759,14.8787856 11.4819802,15.0975644 11.4819802,15.3674221 L11.4819802,18.710282 C9.99437525,18.5965274 8.64065673,17.9967424 7.57927313,17.0701573 L9.94362221,14.7058734 C10.134451,14.5150446 10.134451,14.20564 9.94362221,14.0148763 C9.75279337,13.8240474 9.44338875,13.8240474 9.25262506,14.0148763 L6.8913381,16.3761632 C5.97465605,15.3075478 5.38692409,13.9491384 5.28600437,12.4592531 L8.63251279,12.4592531 C8.90237043,12.4592531 9.12114927,12.2404743 9.12114927,11.9706167 C9.12114927,11.700759 8.90237043,11.4819802 8.63251279,11.4819802 L5.28965285,11.4819802 C5.40347258,9.99437525 6.00319243,8.64065673 6.92977751,7.57927313 L9.29412659,9.94362221 C9.38950843,10.0390041 9.51459937,10.0867601 9.63962516,10.0867601 C9.76465095,10.0867601 9.88974189,10.0390692 9.98512373,9.94362221 C10.1759526,9.75279337 10.1759526,9.44338875 9.98512373,9.25262506 L7.62383677,6.8913381 C8.6924522,5.97465605 10.0508616,5.38692409 11.5407469,5.28600437 L11.5407469,8.63251279 L12.5180198,8.63251279 L12.5180198,5.28965285 C14.0056247,5.40340743 15.3593433,6.00319243 16.4207269,6.92977751 L14.0564429,9.29406144 C13.8656141,9.48489027 13.8656141,9.7942949 14.0564429,9.98505858 C14.1518248,10.0804404 14.2769157,10.1281965 14.4019415,10.1281965 C14.5269673,10.1281965 14.6520582,10.0805056 14.7474401,9.98505858 L17.1086619,7.62383677 C18.0253439,8.6924522 18.6130759,10.0508616 18.7139956,11.5407469 L15.3673569,11.5407469 C15.0974993,11.5407469 14.8787204,11.7595257 14.8787204,12.0293833 C14.8787204,12.299241 15.0974993,12.5180198 15.3673569,12.5180198 L18.7102168,12.5180198 C18.5964623,14.0056899 17.9967424,15.3594084 17.0701573,16.4207269 L17.0701573,16.4207269 Z M22.6669997,12.3851759 C22.4708284,12.3851759 22.3112723,12.2255546 22.3112723,12.0294485 C22.3112723,11.8332772 22.4708936,11.673656 22.6669997,11.673656 C22.8631058,11.673656 23.022727,11.8332772 23.022727,12.0294485 C23.022727,12.2255546 22.8631058,12.3851759 22.6669997,12.3851759 Z M15.6883411,19.967912 L15.6883411,19.967912 L16.3254868,21.6212045 C16.431045,21.8950711 16.310036,22.2091659 16.0551644,22.3226208 C15.9926952,22.3504656 15.9279617,22.3636364 15.8642272,22.3636364 C15.6682285,22.3636364 15.4822195,22.2388001 15.402568,22.032076 L14.7654223,20.3787835 C14.659864,20.1049169 14.7808731,19.7908221 15.0357447,19.6773671 C15.2904831,19.5639122 15.5827829,19.6939738 15.6883411,19.967912 Z M22.0320866,15.4025633 L22.0320866,15.4025633 C22.306026,15.5081209 22.4360881,15.8002855 22.3226327,16.0551553 C22.2370221,16.2474898 22.0370972,16.3636364 21.8264352,16.3636364 C21.758004,16.3636364 21.6884275,16.3513824 21.6212132,16.3254758 L19.9679134,15.6883345 C19.693974,15.582777 19.5639119,15.2906124 19.6773673,15.0357426 C19.7908228,14.7808727 20.1047042,14.6598645 20.3787868,14.765422 L22.0320866,15.4025633 Z M19.6773673,8.9642462 L19.6773673,8.9642462 C19.5639119,8.70937637 19.693974,8.41721177 19.9679134,8.31165423 L21.6212132,7.67451295 C21.8950811,7.56895542 22.2091772,7.68996365 22.3226327,7.94483348 C22.4360881,8.19970331 22.306026,8.49186791 22.0320866,8.59742545 L20.3787868,9.23456673 C20.311644,9.26047328 20.2420676,9.27272727 20.1735648,9.27272727 C19.9629028,9.27272727 19.7629779,9.15658069 19.6773673,8.9642462 Z M15.0357447,4.86807534 L15.0357447,4.86807534 C14.7808731,4.75462041 14.659864,4.44052561 14.7654223,4.16665901 L15.402568,2.51336652 C15.5080596,2.23942833 15.8001596,2.10936675 16.0551644,2.22282168 C16.310036,2.33627661 16.431045,2.65029983 16.3254868,2.92423801 L15.6883411,4.5775305 C15.6086896,4.78425469 15.4226806,4.90909091 15.2266819,4.90909091 C15.163014,4.90909091 15.0982805,4.89592012 15.0357447,4.86807534 Z M8.31165887,4.5775305 L8.31165887,4.5775305 L7.67451322,2.92423801 C7.56895496,2.65037141 7.68996401,2.33627661 7.94483559,2.22282168 C8.19964058,2.10936675 8.49194038,2.23942833 8.59743204,2.51336652 L9.23457769,4.16665901 C9.34013595,4.44052561 9.21912689,4.75462041 8.96425532,4.86807534 C8.90178614,4.89592012 8.83705262,4.90909091 8.77331807,4.90909091 C8.57731937,4.90909091 8.3913104,4.78425469 8.31165887,4.5775305 Z M2.51336799,8.59741393 C2.23942859,8.49185459 2.10936643,8.199685 2.22282186,7.94481083 C2.3362773,7.68993665 2.65023032,7.56899296 2.9242413,7.67448569 L4.5775411,8.31163784 C4.8514805,8.41719717 4.98154266,8.70936676 4.86808723,8.96424094 C4.78247669,9.15657871 4.58255175,9.27272727 4.3718897,9.27272727 C4.30345854,9.27272727 4.23388208,9.26047307 4.16666779,9.23456607 L2.51336799,8.59741393 Z M4.86808723,15.0357199 C4.98154266,15.2905275 4.8514805,15.5827637 4.5775411,15.688323 L2.9242413,16.3254752 C2.85709859,16.3513822 2.78752213,16.3636364 2.71901939,16.3636364 C2.50835734,16.3636364 2.3084324,16.2474878 2.22282186,16.05515 C2.10936643,15.8003425 2.23942859,15.5081063 2.51336799,15.4025469 L4.16666779,14.7653948 C4.44053561,14.659902 4.75463179,14.7808457 4.86808723,15.0357199 Z M8.96425532,19.6773376 C9.21912689,19.7907222 9.34013595,20.1048204 9.23457769,20.3787616 L8.59743204,22.0320723 C8.51778051,22.2387988 8.33177154,22.3636364 8.13577283,22.3636364 C8.07210489,22.3636364 8.00737137,22.3504654 7.94483559,22.3226203 C7.68996401,22.2091642 7.56895496,21.8951375 7.67451322,21.6211963 L8.31165887,19.9678856 C8.41721712,19.6939444 8.70931714,19.563953 8.96425532,19.6773376 Z"></path>
    </symbol>
    <symbol id="c-pin" viewBox="0 0 13 13">
      <path d="M8.31147541,0.0426229508 L8.24754098,0.106557377 C7.69344262,0.660655738 7.39508197,1.40655738 7.37377049,2.17377049 L5.1147541,4.43278689 C3.77213115,4.11311475 2.3442623,4.39016393 1.23606557,5.32786885 L4.09180328,8.18360656 L0.170491803,12.104918 C6.24500451e-16,12.2754098 6.24500451e-16,12.5311475 0.170491803,12.7016393 C0.340983607,12.8721311 0.596721311,12.8721311 0.767213115,12.7016393 L4.68852459,8.78032787 L7.52295082,11.6147541 C8.46065574,10.4852459 8.75901639,9.0147541 8.43934426,7.7147541 L10.6557377,5.49836066 C11.4229508,5.47704918 12.1688525,5.17868852 12.7442623,4.62459016 L12.8081967,4.56065574 L8.31147541,0.0426229508 L8.31147541,0.0426229508 Z"></path>
    </symbol>
    <symbol id="c-check" viewBox="0 0 12 12" fill="#e2001a">
      <path d="M12,6 C12,9.31371774 9.31371774,12 6,12 C2.68628226,12 0,9.31371774 0,6 C0,2.68628226 2.68628226,0 6,0 C9.31371774,0 12,2.68628226 12,6 Z M5.30598387,9.17695161 L9.75759677,4.72533871 C9.90875806,4.57417742 9.90875806,4.32907258 9.75759677,4.17791129 L9.21016935,3.63048387 C9.05900806,3.47929839 8.81390323,3.47929839 8.66271774,3.63048387 L5.03225806,7.26091935 L3.33728226,5.56594355 C3.18612097,5.41478226 2.94101613,5.41478226 2.78983065,5.56594355 L2.24240323,6.11337097 C2.09124194,6.26453226 2.09124194,6.5096371 2.24240323,6.66079839 L4.75853226,9.17692742 C4.90971774,9.3281129 5.15479839,9.3281129 5.30598387,9.17695161 L5.30598387,9.17695161 Z"></path>
    </symbol>
    <symbol id="c-info" viewBox="0 0 44 44">
      <path fill="currentColor" d="M22.0004166,14 C17.5814801,14 14,17.5814801 14,21.9995834 C14,26.4185199 17.5814801,30 22.0004166,30 C26.4176866,30 30,26.4185199 30,21.9995834 C30,17.5814801 26.4176866,14 22.0004166,14 Z M22.7470444,16.8881829 C23.5270038,16.8881829 23.7561585,17.3406593 23.7561585,17.8581324 C23.7561585,18.5039321 23.2395188,19.101401 22.3570647,19.101401 C21.6187699,19.101401 21.2671215,18.7305869 21.288787,18.1164523 C21.288787,17.5989792 21.7212645,16.8881829 22.7470444,16.8881829 Z M20.7488152,26.7910005 C20.2155096,26.7910005 19.8263632,26.4668507 20.1988438,25.0460913 L20.8096453,22.5253893 C20.9154732,22.122077 20.9329722,21.9604187 20.8096453,21.9604187 C20.650487,21.9604187 19.958023,22.2387376 19.549711,22.5137232 L19.2838915,22.0779126 C20.5796573,20.995469 22.0695797,20.3605021 22.7070465,20.3605021 C23.2403521,20.3605021 23.3286808,20.9904692 23.0628613,21.9604187 L22.3628978,24.6102807 C22.2387376,25.0785897 22.2920681,25.2402479 22.4162283,25.2402479 C22.57622,25.2402479 23.0995261,25.0469246 23.6144992,24.6411124 L23.9161502,25.0460913 C22.6553825,26.3060257 21.2812874,26.7910005 20.7488152,26.7910005 Z" ></path>
      <rect x="0" y="0" width="44" height="44" opacity="0"></rect>
    </symbol>
    <symbol id="c-map" viewBox="0 0 44 44">
      <path fill="currentColor" d="M25.6190476,15.5463527 L19.3333333,13.0204267 L19.3333333,28.8257814 L25.6437893,31.3616498 C25.6277015,31.3088694 25.6190476,31.2528479 25.6190476,31.1948052 L25.6190476,15.5463527 Z M26.7619048,15.4377107 L26.7619048,31.1948052 C26.7619048,31.211344 26.7612021,31.2277187 26.7598251,31.243901 L32.8571429,28.7936826 L32.8571429,12.988328 L26.7619048,15.4377107 Z M25.9912759,14.4642509 C26.053301,14.4411797 26.1204162,14.4285714 26.1904762,14.4285714 C26.1961681,14.4285714 26.2018405,14.4286546 26.2074924,14.4288199 L33.215502,11.6126383 C33.5909745,11.461754 34,11.7382021 34,12.1428571 L34,29.1798942 C34,29.4132215 33.8581413,29.6231119 33.6416409,29.710113 L26.268369,32.673076 C26.1316363,32.7280223 25.9789628,32.7280223 25.8422301,32.673076 L18.6722835,29.7918197 L10.7675082,32.6795912 C10.3946959,32.8157869 10,32.5397681 10,32.1428571 L10,15.1058201 C10,14.8658419 10.1499412,14.651432 10.375349,14.5690861 L18.4859481,11.6061231 C18.6184594,11.5577141 18.7641943,11.5600348 18.8950971,11.6126383 L25.9912759,14.4642509 Z M18.1904762,28.7511019 L18.1904762,12.9307964 L11.1428571,15.5054317 L11.1428571,31.3257371 L18.1904762,28.7511019 Z"></path>
      <rect x="0" y="0" width="44" height="44" opacity="0"></rect>
    </symbol>
    <symbol id="c-analysis" viewBox="0 0 44 44">
      <path fill="currentColor" d="M31.4257261,13.6473029 C29.3892116,11.3419087 26.4614108,10.0224066 23.3892116,10.0224066 C23.0605809,10.0224066 22.7917012,10.2912863 22.7917012,10.619917 L22.7917012,20.7477178 C22.7917012,21.0763485 23.0605809,21.3452282 23.3892116,21.3452282 L33.5170124,21.3452282 C33.8456432,21.3452282 34.1145228,21.0763485 34.1145228,20.7477178 C34.1095436,18.1286307 33.1585062,15.6041494 31.4257261,13.6473029 Z M23.986722,20.1452282 L23.986722,11.2323651 C26.4962656,11.3917012 28.8564315,12.5369295 30.5294606,14.4340249 C31.93361,16.0273859 32.7651452,18.0340249 32.8946058,20.1452282 L23.986722,20.1452282 Z M30.8481328,22.6746888 C31.1767635,22.6746888 31.4456432,22.9385892 31.4506224,23.2672199 C31.4506224,26.1302905 30.3352697,28.8240664 28.3087137,30.8506224 C26.2821577,32.8771784 23.5883817,33.9925311 20.7253112,33.9925311 C17.8622407,33.9925311 15.1684647,32.8771784 13.1419087,30.8506224 C11.1153527,28.8290456 10,26.1352697 10,23.2721992 C10,20.4091286 11.1153527,17.7153527 13.1419087,15.6887967 C15.1634855,13.6622407 17.8572614,12.546888 20.720332,12.546888 C21.0489627,12.546888 21.3178423,12.8157676 21.3178423,13.1443983 C21.3178423,13.473029 21.0489627,13.7419087 20.720332,13.7419087 C15.4672199,13.7419087 11.1950207,18.0141079 11.1950207,23.2721992 C11.1950207,28.5253112 15.4622407,32.8024896 20.720332,32.8024896 C25.9784232,32.8024896 30.2506224,28.5253112 30.2506224,23.2721992 C30.2506224,22.9435685 30.5195021,22.6746888 30.8481328,22.6746888 Z M20.720332,15.0763485 C21.0539419,15.0763485 21.3178423,15.3452282 21.3178423,15.6738589 C21.3178423,16.0024896 21.0489627,16.2713693 20.720332,16.2713693 C20.3917012,16.2713693 20.1228216,16.0024896 20.1228216,15.6738589 C20.1228216,15.3452282 20.3917012,15.0763485 20.720332,15.0763485 Z M20.720332,17.6107884 C21.0539419,17.6107884 21.3178423,17.879668 21.3178423,18.2082988 C21.3178423,18.5369295 21.0489627,18.8058091 20.720332,18.8058091 C20.3917012,18.8058091 20.1228216,18.5369295 20.1228216,18.2082988 C20.1228216,17.879668 20.3917012,17.6107884 20.720332,17.6107884 Z M20.720332,20.140249 C21.0539419,20.140249 21.3178423,20.4091286 21.3178423,20.7377593 C21.3178423,21.06639 21.0489627,21.3352697 20.720332,21.3352697 C20.3917012,21.3352697 20.1228216,21.06639 20.1228216,20.7377593 C20.1228216,20.4091286 20.3917012,20.140249 20.720332,20.140249 Z M20.3020747,22.8489627 C20.4116183,22.7344398 20.5659751,22.6746888 20.7253112,22.6746888 C20.8846473,22.6746888 21.0390041,22.7394191 21.1485477,22.8489627 C21.2580913,22.9585062 21.3228216,23.1128631 21.3228216,23.2721992 C21.3228216,23.4315353 21.2580913,23.5858921 21.1485477,23.6954357 C21.0390041,23.8049793 20.8846473,23.8697095 20.7253112,23.8697095 C20.5659751,23.8697095 20.4116183,23.8049793 20.3020747,23.6954357 C20.1925311,23.5858921 20.1278008,23.4315353 20.1278008,23.2721992 C20.1278008,23.1128631 20.1925311,22.9585062 20.3020747,22.8489627 Z M26.3817427,23.2721992 C26.3817427,23.6008299 26.1128631,23.8697095 25.7842324,23.8697095 C25.4556017,23.8697095 25.186722,23.6008299 25.186722,23.2721992 C25.186722,22.9435685 25.4556017,22.6746888 25.7842324,22.6746888 C26.1128631,22.6746888 26.3817427,22.9435685 26.3817427,23.2721992 Z M23.8522822,23.2721992 C23.8522822,23.6008299 23.5834025,23.8697095 23.2547718,23.8697095 C22.9261411,23.8697095 22.6572614,23.6008299 22.6572614,23.2721992 C22.6572614,22.9435685 22.9261411,22.6746888 23.2547718,22.6746888 C23.5834025,22.6746888 23.8522822,22.9435685 23.8522822,23.2721992 Z M28.9161826,23.2721992 C28.9161826,23.6008299 28.6473029,23.8697095 28.3186722,23.8697095 C27.9900415,23.8697095 27.7211618,23.6008299 27.7211618,23.2721992 C27.7211618,22.9435685 27.9900415,22.6746888 28.3186722,22.6746888 C28.6473029,22.6746888 28.9161826,22.9435685 28.9161826,23.2721992 Z"></path>
      <rect x="0" y="0" width="44" height="44" opacity="0"></rect>
    </symbol>
    <symbol id="c-patient" viewBox="0 0 44 44">
      <path fill="currentColor" d="M25.2273529,11.6317897 C24.9116953,11.5365914 24.7363299,11.1958816 24.8365387,10.8852344 C24.9367475,10.5645664 25.2724468,10.389201 25.5881045,10.4894098 C25.9087725,10.5846081 26.0841379,10.9253179 25.9839291,11.2409755 C25.8987516,11.4965079 25.663261,11.6618524 25.4077287,11.6618524 C25.3476034,11.6618524 25.2874782,11.6518315 25.2273529,11.6317897 Z M23.0878957,11.1958816 C22.7572068,11.165819 22.5167057,10.8702031 22.5467683,10.5395142 C22.576831,10.2088252 22.8724468,9.96832419 23.2031358,10.0033973 C23.5388352,10.0334599 23.7793362,10.3290758 23.7442631,10.6597647 C23.7142005,10.9704119 23.4536577,11.200892 23.148021,11.200892 C23.1279792,11.200892 23.1079374,11.1958816 23.0878957,11.1958816 Z M18.5785011,11.6618524 C18.3229688,11.6618524 18.0874782,11.4965079 18.0073111,11.2409755 C17.9121128,10.9253179 18.0874782,10.5896186 18.4031358,10.4894098 C18.7187934,10.3942115 19.0544928,10.5695768 19.1547015,10.8852344 C19.2498999,11.200892 19.0745345,11.5365914 18.7588769,11.6368002 C18.6987516,11.6518315 18.6386264,11.6618524 18.5785011,11.6618524 Z M27.2365387,12.4935852 C26.9459333,12.3332511 26.8407141,11.9674891 27.0010481,11.6768837 C27.1613821,11.3862783 27.5271441,11.2810591 27.8177496,11.4413931 C28.108355,11.6017271 28.2135742,11.9674891 28.0532402,12.2580945 C27.9430105,12.4585121 27.7375825,12.5687417 27.5271441,12.5687417 C27.4269354,12.5687417 27.3267266,12.5436895 27.2365387,12.4935852 Z M16.4590857,12.5737522 C16.2486473,12.5737522 16.0432193,12.4635225 15.9329896,12.263105 C15.7726556,11.9724996 15.8778748,11.6067376 16.1684802,11.4464035 C16.4590857,11.2860695 16.8248477,11.3912887 16.9851817,11.6818941 C17.1455157,11.9724996 17.0402965,12.3382616 16.7496911,12.4985956 C16.6595032,12.5487 16.5592944,12.5737522 16.4590857,12.5737522 Z M29.0302757,13.7461948 C28.7797537,13.5307459 28.7496911,13.1499526 28.96514,12.8994307 C29.1805888,12.6489087 29.5613821,12.6188461 29.811904,12.834295 C30.062426,13.0497438 30.0924886,13.4305371 29.8770397,13.6810591 C29.7567892,13.8213513 29.5914448,13.8914975 29.4210898,13.8914975 C29.2807976,13.8914975 29.1455157,13.8413931 29.0302757,13.7461948 Z M32.2369562,17.5190549 C32.0164969,17.5190549 31.8010481,17.3937939 31.6958289,17.1833555 C31.5505262,16.8827292 31.6757871,16.5219776 31.971403,16.3766749 C32.2720293,16.2313722 32.6327809,16.3516227 32.7780836,16.652249 C32.9233863,16.9528753 32.7981253,17.3136269 32.5025095,17.4589296 C32.417332,17.4990131 32.3271441,17.5190549 32.2369562,17.5190549 Z M32.4574155,19.2276144 C32.3722381,18.9069463 32.5676452,18.5812678 32.8883132,18.4960904 C33.2089813,18.4109129 33.5346598,18.60632 33.6198372,18.9269881 C33.7050147,19.2476561 33.5096076,19.5733346 33.1889395,19.6585121 C33.1388352,19.6735434 33.0887308,19.6785538 33.0386264,19.6785538 C32.7730731,19.6785538 32.5275617,19.4981781 32.4574155,19.2276144 Z M33.3592944,20.7608085 C33.6899834,20.7407668 33.9705679,20.9962991 33.9906097,21.3319985 C34.005641,21.6626874 33.7501086,21.9482824 33.4194197,21.9633138 L33.3893571,21.9633138 C33.068689,21.9633138 32.8031358,21.7127918 32.7881045,21.3921238 C32.7730731,21.0614348 33.0286055,20.7758398 33.3592944,20.7608085 Z M20.8382088,11.200892 C20.5325721,11.200892 20.2720293,10.9704119 20.2419667,10.6597647 C20.2068936,10.3290758 20.4473946,10.0384703 20.7780836,10.0033973 C21.1087725,9.96832419 21.3993779,10.2088252 21.434451,10.5395142 C21.4695241,10.8702031 21.229023,11.1608085 20.8983341,11.1958816 C20.8782924,11.200892 20.8582506,11.200892 20.8382088,11.200892 Z M32.0014656,27.4597647 C32.2820502,27.63513 32.3722381,28.0059025 32.1918623,28.2814766 C32.0766222,28.4668628 31.8812151,28.5670716 31.6807976,28.5670716 C31.5755784,28.5670716 31.4653487,28.537009 31.36514,28.4768837 C31.0845554,28.3015183 30.9993779,27.9307459 31.1747433,27.6501614 C31.3501086,27.3695768 31.7208811,27.2843993 32.0014656,27.4597647 Z M33.3643049,23.0706206 C33.6899834,23.120725 33.9204635,23.4263618 33.8653487,23.7520403 C33.8202548,24.0476561 33.5647224,24.263105 33.274117,24.263105 C33.2440544,24.263105 33.2139917,24.263105 33.1839291,24.2580945 C32.8532402,24.2130006 32.6277704,23.9023534 32.6778748,23.5766749 C32.7279792,23.245986 33.0386264,23.0205163 33.3643049,23.0706206 Z M31.4853905,14.5929588 C31.6908184,14.8535016 31.6407141,15.234295 31.3801713,15.4347125 C31.2749521,15.51989 31.1446807,15.5599735 31.0144093,15.5599735 C30.8340335,15.5599735 30.6586681,15.4798064 30.5384176,15.3294933 C30.3329896,15.0689505 30.383094,14.6931676 30.6436368,14.4877396 C30.9041796,14.2823117 31.2799625,14.3324161 31.4853905,14.5929588 Z M14.5701504,13.8914975 C14.3997955,13.8914975 14.2294406,13.8213513 14.1142005,13.6810591 C13.8987516,13.4305371 13.9288143,13.0497438 14.1793362,12.834295 C14.4298581,12.6188461 14.8106514,12.6489087 15.0261003,12.8994307 C15.2415491,13.1499526 15.2114865,13.5307459 14.9609646,13.7461948 C14.8507349,13.8413931 14.7104427,13.8914975 14.5701504,13.8914975 Z M13.4528226,15.3294933 C13.3325721,15.4848169 13.1572068,15.5649839 12.9818414,15.5599735 C12.85157,15.5599735 12.7212986,15.51989 12.611069,15.4347125 C12.3505262,15.234295 12.3004218,14.8535016 12.5058498,14.5929588 C12.7062673,14.3324161 13.0870606,14.2823117 13.3476034,14.4877396 C13.6081462,14.6881572 13.6582506,15.0689505 13.4528226,15.3294933 Z M11.8544928,25.6910799 C11.9697329,26.0067376 11.8144093,26.3524578 11.5037621,26.457677 C11.4336159,26.4877396 11.3634698,26.4977605 11.2933237,26.4977605 C11.0478122,26.4977605 10.817332,26.3474474 10.7271441,26.1069463 C10.611904,25.7962991 10.7722381,25.4505789 11.0828853,25.3353388 C11.3935324,25.2200987 11.7392527,25.3804328 11.8544928,25.6910799 Z M10.5718205,21.9633138 C10.2411316,21.9482824 9.98559924,21.6626874 10.0006306,21.3319985 C10.0156619,21.0013096 10.3012569,20.7457772 10.6319458,20.7608085 C10.9626347,20.7758398 11.2181671,21.0614348 11.2031358,21.3921238 C11.1881045,21.7127918 10.9225512,21.9633138 10.6018832,21.9633138 L10.5718205,21.9633138 Z M12.8164969,27.6551718 C12.9918623,27.9357563 12.9066848,28.3065288 12.6261003,28.4869046 C12.530902,28.5470298 12.4206723,28.5770925 12.3104427,28.5770925 C12.1100251,28.5770925 11.914618,28.4768837 11.7993779,28.2914975 C11.6190022,28.0109129 11.7091901,27.6401405 11.9897746,27.4647751 C12.2703592,27.2894098 12.6411316,27.3745872 12.8164969,27.6551718 Z M10.8073111,24.263105 C10.7772485,24.2681154 10.7471859,24.2681154 10.7121128,24.2681154 C10.4215074,24.2681154 10.165975,24.057677 10.1208811,23.7570507 C10.0707767,23.4263618 10.3012569,23.120725 10.6269354,23.0706206 C10.9576243,23.0205163 11.263261,23.245986 11.3133654,23.5766749 C11.3634698,23.9073639 11.1380001,24.2130006 10.8073111,24.263105 Z M10.8023007,19.6635225 C10.4816326,19.5833555 10.2862255,19.2526666 10.371403,18.9319985 C10.45157,18.6113305 10.7822589,18.4159234 11.102927,18.5011008 C11.4235951,18.5812678 11.6190022,18.9119568 11.5338247,19.2326248 C11.4636786,19.5031885 11.2181671,19.6835643 10.9526139,19.6835643 C10.9025095,19.6835643 10.8524051,19.6785538 10.8023007,19.6635225 Z M11.4887308,17.4589296 C11.1931149,17.3136269 11.0678539,16.9528753 11.2131567,16.652249 C11.3634698,16.3516227 11.7242214,16.2313722 12.0198372,16.3766749 C12.3204635,16.5269881 12.4407141,16.8827292 12.2954114,17.1833555 C12.1901921,17.3937939 11.9747433,17.5190549 11.754284,17.5190549 C11.6640961,17.5190549 11.5739082,17.4990131 11.4887308,17.4589296 Z M32.908355,25.3353388 C33.2190022,25.4505789 33.3793362,25.7962991 33.2691065,26.1069463 C33.1789187,26.3474474 32.9484385,26.4977605 32.702927,26.4977605 C32.6327809,26.4977605 32.5626347,26.4877396 32.4924886,26.4626874 C32.1818414,26.3474474 32.0215074,26.0017271 32.1367475,25.6910799 C32.2519876,25.3804328 32.5977078,25.2200987 32.908355,25.3353388 Z M30.4031358,29.223439 C30.6085638,29.2735434 30.7789187,29.428867 30.8340335,29.634295 C30.8941587,29.8397229 30.8440544,30.0651927 30.6937412,30.2205163 C29.5814239,31.3879484 28.2736995,32.3048586 26.805641,32.9512052 C25.2874782,33.6226039 23.6640961,33.9583033 21.9906097,33.9583033 C20.3171233,33.9583033 18.6937412,33.6175935 17.1705679,32.9512052 C15.7025095,32.3048586 14.394785,31.3879484 13.2824677,30.2155058 L13.2774573,30.2104954 C13.137165,30.0551718 13.0820502,29.8397229 13.1421754,29.634295 C13.2023007,29.428867 13.3576243,29.2735434 13.5630523,29.2184286 C17.7467683,28.0810591 18.5634698,26.6731259 18.7187934,26.2221864 C18.5334072,26.0718733 18.3580418,25.9065288 18.1977078,25.7211426 C16.2035533,23.4764662 16.5442631,19.6134181 16.5793362,19.2626874 C16.7045972,16.5921238 17.937165,15.2843993 18.9492736,14.6580945 C20.096664,13.9466123 21.3142005,13.8714557 21.7801713,13.8714557 L21.8954114,13.8714557 L22.0106514,13.8714557 C22.4816326,13.8714557 23.6941587,13.9466123 24.8415491,14.6580945 C25.8536577,15.2843993 27.0812151,16.5921238 27.2114865,19.2626874 C27.2465596,19.6084077 27.5872694,23.4764662 25.5931149,25.7211426 C25.4878957,25.8413931 25.3726556,25.9566332 25.2574155,26.0618524 C25.3576243,26.2722908 25.583094,26.6831467 26.074117,27.1491175 C26.7405053,27.7854432 28.0331984,28.6672804 30.4031358,29.223439 Z M17.776831,19.3679067 C17.7718205,19.4029797 17.4060585,23.0205163 19.0945763,24.9244829 C19.7759959,25.6860695 20.6828853,26.0668628 21.8653487,26.0768837 L21.8904009,26.0768837 C21.8954114,26.0768837 21.8904009,26.0768837 21.8954114,26.0768837 C21.9004218,26.0768837 21.9004218,26.0768837 21.9004218,26.0768837 L21.925474,26.0768837 C23.1079374,26.0618524 24.0148268,25.6860695 24.6962464,24.9194724 C26.394785,23.0104954 26.0240126,19.4029797 26.0190022,19.3679067 C26.0139917,19.3578858 26.0139917,19.3428545 26.0139917,19.3328336 C25.8286055,15.3795977 22.9025095,15.0739609 22.0106514,15.0739609 L21.9204635,15.0739609 L21.8753696,15.0739609 L21.7851817,15.0739609 C20.8883132,15.0739609 17.9622172,15.3795977 17.7818414,19.3328336 C17.776831,19.3428545 17.776831,19.3578858 17.776831,19.3679067 Z M21.9956201,32.7557981 C24.6361212,32.7557981 27.1162882,31.8238566 29.08038,30.1152971 C25.913783,29.1332511 24.6962464,27.5750048 24.2603383,26.7583033 C23.59395,27.0940027 22.8323633,27.269368 21.9755784,27.2843993 L21.925474,27.2843993 L21.8954114,27.2843993 L21.8152443,27.2843993 C21.0536577,27.269368 20.3672276,27.1290758 19.7559541,26.8635225 C19.36514,27.7002657 18.2177496,29.0079902 14.8807976,30.0852344 C16.8498999,31.8138357 19.3400878,32.7557981 21.9956201,32.7557981 Z"></path>
      <rect x="0" y="0" width="44" height="44" opacity="0"></rect>
    </symbol>
    <symbol id="c-filter" viewBox="0 0 15 15" fill="currentColor">
      <path d="M7.7763932,0.552786405 C7.91715695,0.482404532 8.08284305,0.482404532 8.2236068,0.552786405 L15.2236068,4.0527864 C15.5921311,4.23704854 15.5921311,4.76295146 15.2236068,4.9472136 L8.2236068,8.4472136 C8.08284305,8.51759547 7.91715695,8.51759547 7.7763932,8.4472136 L0.776393202,4.9472136 C0.407868933,4.76295146 0.407868933,4.23704854 0.776393202,4.0527864 L7.7763932,0.552786405 Z M2.11803399,4.5 L8,7.44098301 L13.881966,4.5 L8,1.55901699 L2.11803399,4.5 Z M1.2236068,11.0527864 L8,14.440983 L14.7763932,11.0527864 C15.0233825,10.9292918 15.323719,11.029404 15.4472136,11.2763932 C15.5707082,11.5233825 15.470596,11.823719 15.2236068,11.9472136 L8.2236068,15.4472136 C8.08284305,15.5175955 7.91715695,15.5175955 7.7763932,15.4472136 L0.776393202,11.9472136 C0.529403954,11.823719 0.42929178,11.5233825 0.552786405,11.2763932 C0.676281029,11.029404 0.976617549,10.9292918 1.2236068,11.0527864 Z M1.2236068,7.5527864 L8,10.940983 L14.7763932,7.5527864 C15.0233825,7.42929178 15.323719,7.52940395 15.4472136,7.7763932 C15.5707082,8.02338245 15.470596,8.32371897 15.2236068,8.4472136 L8.2236068,11.9472136 C8.08284305,12.0175955 7.91715695,12.0175955 7.7763932,11.9472136 L0.776393202,8.4472136 C0.529403954,8.32371897 0.42929178,8.02338245 0.552786405,7.7763932 C0.676281029,7.52940395 0.976617549,7.42929178 1.2236068,7.5527864 Z"></path>
    </symbol>
    <symbol id="c-close" viewBox="0 0 14 14" fill="currentColor">
      <path d="M6.80330086,5.3890873 L2.20710678,0.792893219 C1.81658249,0.402368927 1.18341751,0.402368927 0.792893219,0.792893219 C0.402368927,1.18341751 0.402368927,1.81658249 0.792893219,2.20710678 L5.3890873,6.80330086 L0.792893219,11.3994949 C0.402368927,11.7900192 0.402368927,12.4231842 0.792893219,12.8137085 C1.18341751,13.2042328 1.81658249,13.2042328 2.20710678,12.8137085 L6.80330086,8.21751442 L11.3994949,12.8137085 C11.7900192,13.2042328 12.4231842,13.2042328 12.8137085,12.8137085 C13.2042328,12.4231842 13.2042328,11.7900192 12.8137085,11.3994949 L8.21751442,6.80330086 L12.8137085,2.20710678 C13.2042328,1.81658249 13.2042328,1.18341751 12.8137085,0.792893219 C12.4231842,0.402368927 11.7900192,0.402368927 11.3994949,0.792893219 L6.80330086,5.3890873 Z"></path>
    </symbol>
    <symbol id="c-config" viewBox="0 0 34 34" fill="currentColor">
      <path d="M19.8901098,16.6190477 C19.8901098,15.9179893 19.6486519,15.3194441 19.1657367,14.8234127 C18.682821,14.3273807 18.1001033,14.0793647 17.4175825,14.0793647 C16.7350617,14.0793647 16.1523435,14.3273807 15.6694283,14.8234127 C15.1865125,15.3194441 14.9450552,15.9179893 14.9450552,16.6190477 C14.9450552,17.3201055 15.1865125,17.9186507 15.6694283,18.4146821 C16.1523435,18.9107141 16.7350617,19.1587301 17.4175825,19.1587301 C18.1001033,19.1587301 18.682821,18.9107141 19.1657367,18.4146821 C19.6486519,17.9186507 19.8901098,17.3201055 19.8901098,16.6190477 Z M24.835165,15.5376984 L24.835165,17.7400794 C24.835165,17.8194441 24.8094094,17.8955022 24.7578983,17.9682536 C24.7063871,18.041005 24.6419985,18.0839947 24.5647323,18.0972219 L22.777945,18.3749997 C22.6556062,18.7321428 22.5300481,19.0330684 22.4012708,19.2777778 C22.6266313,19.6084652 22.971111,20.0648148 23.4347096,20.6468255 C23.4990988,20.7261902 23.5312929,20.8088622 23.5312929,20.8948409 C23.5312929,20.9808201 23.5023181,21.0568782 23.4443679,21.1230157 C23.2705185,21.3677244 22.9517944,21.7248676 22.4881952,22.1944444 C22.0245965,22.6640207 21.7219692,22.8988095 21.5803144,22.8988095 C21.5030477,22.8988095 21.4193425,22.8690477 21.3291983,22.8095236 L19.9963513,21.7380948 C19.7130412,21.8902116 19.4200721,22.0158726 19.1174448,22.1150791 C19.0144231,23.0145499 18.9210596,23.6296296 18.8373538,23.960317 C18.7922817,24.1455022 18.6763819,24.2380948 18.489655,24.2380948 L16.34551,24.2380948 C16.2553658,24.2380948 16.1764894,24.2099864 16.1088815,24.1537695 C16.0412731,24.0975526 16.0042496,24.0264551 15.9978106,23.9404759 L15.7273779,22.1150791 C15.4118731,22.0092593 15.1221238,21.8869049 14.8581302,21.748016 L13.4963085,22.8095236 C13.4319198,22.8690477 13.3514338,22.8988095 13.2548506,22.8988095 C13.1647063,22.8988095 13.0842204,22.8624338 13.0133927,22.7896824 C12.2020946,22.0357144 11.6708875,21.4801588 11.4197719,21.1230157 C11.3746992,21.0568782 11.3521635,20.9808201 11.3521635,20.8948409 C11.3521635,20.8154761 11.377919,20.7394181 11.4294302,20.6666667 C11.5260129,20.5277778 11.6902046,20.3078702 11.9220037,20.006944 C12.1538033,19.7060184 12.3276527,19.4728836 12.4435525,19.3075396 C12.2697031,18.9768516 12.137706,18.6494708 12.0475617,18.3253967 L10.280091,18.0575396 C10.1963858,18.0443117 10.1287773,18.002976 10.0772667,17.9335319 C10.0257556,17.8640871 10,17.7863757 10,17.7003964 L10,15.498016 C10,15.4186507 10.0257556,15.3425926 10.0772667,15.2698412 C10.1287773,15.1970898 10.1899467,15.1541001 10.2607744,15.1408729 L12.05722,14.8630951 C12.1473642,14.5588622 12.2729223,14.2546293 12.4338942,13.9503964 C12.176339,13.5734127 11.8318594,13.1170631 11.4004548,12.5813487 C11.3360662,12.501984 11.3038721,12.4226187 11.3038721,12.3432539 C11.3038721,12.2771164 11.3328469,12.2010578 11.3907965,12.1150791 C11.5582075,11.8769837 11.8753219,11.5214945 12.3421404,11.048611 C12.8089588,10.5757274 13.1131952,10.3392853 13.2548506,10.3392853 C13.3385558,10.3392853 13.4222615,10.3723544 13.5059667,10.4384919 L14.8388137,11.5 C15.1221238,11.3478833 15.4150929,11.2222222 15.7177196,11.1230157 C15.8207419,10.2235449 15.9141054,9.60846519 15.9978106,9.27777778 C16.0428827,9.09259259 16.1587825,9 16.34551,9 L18.489655,9 C18.5797992,9 18.6586756,9.02810844 18.7262835,9.08432533 C18.7938919,9.14054222 18.8309154,9.2116403 18.8373538,9.29761896 L19.1077865,11.1230157 C19.4232913,11.2288356 19.7130412,11.3511905 19.9770348,11.4900794 L21.3485148,10.4285713 C21.4064644,10.3690477 21.4837312,10.3392853 21.5803144,10.3392853 C21.6640196,10.3392853 21.7445056,10.3723544 21.8217717,10.4384919 C22.6523869,11.2255289 23.1835935,11.7876984 23.4153931,12.1249997 C23.4604652,12.1779099 23.4830015,12.2506613 23.4830015,12.3432539 C23.4830015,12.4226187 23.457246,12.4986773 23.4057348,12.5714281 C23.3091515,12.710317 23.1449604,12.9302246 22.9131608,13.2311508 C22.6813617,13.5320764 22.5075123,13.7652113 22.3916125,13.9305553 C22.5590229,14.2612433 22.69102,14.5853173 22.7876033,14.9027775 L24.555074,15.1805553 C24.6387792,15.1937831 24.7063871,15.2351188 24.7578983,15.3045636 C24.8094094,15.3740077 24.835165,15.4517191 24.835165,15.5376984 Z"></path>
    </symbol>
    <symbol id="c-pdf" viewBox="0 0 512 512" fill="currentColor">
      <path d="M494.479,138.557L364.04,3.018C362.183,1.09,359.621,0,356.945,0h-194.41c-21.757,0-39.458,17.694-39.458,39.442v137.789
			H44.29c-16.278,0-29.521,13.239-29.521,29.513v147.744C14.769,370.761,28.012,384,44.29,384h78.787v88.627
			c0,21.71,17.701,39.373,39.458,39.373h295.238c21.757,0,39.458-17.653,39.458-39.351V145.385
			C497.231,142.839,496.244,140.392,494.479,138.557z M359.385,26.581l107.079,111.265H359.385V26.581z M44.29,364.308
			c-5.42,0-9.828-4.405-9.828-9.82V206.744c0-5.415,4.409-9.821,9.828-9.821h265.882c5.42,0,9.828,4.406,9.828,9.821v147.744
			c0,5.415-4.409,9.82-9.828,9.82H44.29z M477.538,472.649c0,10.84-8.867,19.659-19.766,19.659H162.535
			c-10.899,0-19.766-8.828-19.766-19.68V384h167.403c16.278,0,29.521-13.239,29.521-29.512V206.744
			c0-16.274-13.243-29.513-29.521-29.513H142.769V39.442c0-10.891,8.867-19.75,19.766-19.75h177.157v128
			c0,5.438,4.409,9.846,9.846,9.846h128V472.649z"/>

		<path d="M132.481,249.894c-3.269-4.25-7.327-7.01-12.173-8.279c-3.154-0.846-9.923-1.269-20.308-1.269H72.596v84.577h17.077
			v-31.904h11.135c7.731,0,13.635-0.404,17.712-1.212c3-0.654,5.952-1.99,8.856-4.01c2.904-2.019,5.298-4.798,7.183-8.336
			c1.885-3.538,2.827-7.904,2.827-13.096C137.385,259.634,135.75,254.144,132.481,249.894z M117.856,273.173
			c-1.288,1.885-3.067,3.269-5.337,4.154s-6.769,1.327-13.5,1.327h-9.346v-24h8.25c6.154,0,10.25,0.192,12.288,0.577
			c2.769,0.5,5.058,1.75,6.865,3.75c1.808,2,2.712,4.539,2.712,7.615C119.789,269.096,119.144,271.288,117.856,273.173z"/>

		<path d="M219.481,263.452c-1.846-5.404-4.539-9.971-8.077-13.702s-7.789-6.327-12.75-7.789c-3.692-1.077-9.058-1.615-16.096-1.615
			h-31.212v84.577h32.135c6.308,0,11.346-0.596,15.115-1.789c5.039-1.615,9.039-3.865,12-6.75c3.923-3.808,6.942-8.788,9.058-14.942
			c1.731-5.039,2.596-11.039,2.596-18C222.25,275.519,221.327,268.856,219.481,263.452z M202.865,298.183
			c-1.154,3.789-2.644,6.51-4.471,8.163c-1.827,1.654-4.125,2.827-6.894,3.519c-2.115,0.539-5.558,0.808-10.327,0.808h-12.75v0
			v-56.019h7.673c6.961,0,11.635,0.269,14.019,0.808c3.192,0.692,5.827,2.019,7.904,3.981c2.077,1.962,3.692,4.692,4.846,8.192
			c1.154,3.5,1.731,8.519,1.731,15.058C204.596,289.231,204.019,294.394,202.865,298.183z"/>

		<polygon points="294.827,254.654 294.827,240.346 236.846,240.346 236.846,324.923 253.923,324.923 253.923,288.981
			289.231,288.981 289.231,274.673 253.923,274.673 253.923,254.654 		"/>
    </symbol>
    <symbol id="c-dl" viewBox="0 0 24 24" fill="currentColor">
      <path d="M21,14.38a.62.62,0,0,0-.62.62v4A1.38,1.38,0,0,1,19,20.38H5A1.38,1.38,0,0,1,3.62,19V15a.62.62,0,0,0-1.24,0v4A2.62,2.62,0,0,0,5,21.62H19A2.62,2.62,0,0,0,21.62,19V15A.62.62,0,0,0,21,14.38Z"/><path d="M11.56,15.44s0,0,0,0,.09.07.15.1a.74.74,0,0,0,.48,0c.06,0,.1-.07.15-.1s0,0,0,0l5-5a.62.62,0,0,0-.88-.88l-3.94,3.93V3a.62.62,0,1,0-1.24,0V13.49L7.44,9.56a.62.62,0,0,0-.88.88Z"/>
    </symbol>
    <symbol id="c-admin" viewBox="0 0 498.24 517" fill="currentColor">
      <path d="M487.66,313.93l-30.3-25a211.63,211.63,0,0,0,0-60.94l30.31-25a28.86,28.86,0,0,0,6.67-36.84L451.64,92.28a28.93,28.93,0,0,0-35.25-12.65L379.61,93.41A209.28,209.28,0,0,0,326.84,62.9l-6.45-38.68A28.86,28.86,0,0,0,291.82,0h-85.4a28.86,28.86,0,0,0-28.57,24.21L171.4,62.9a209.58,209.58,0,0,0-52.77,30.51L81.91,79.65a28.93,28.93,0,0,0-35.3,12.62l-42.7,74a28.86,28.86,0,0,0,6.67,36.84l30.31,25a212.1,212.1,0,0,0,0,60.94l-30.31,25a28.86,28.86,0,0,0-6.67,36.84l42.7,74a29,29,0,0,0,25.07,14.5,28.51,28.51,0,0,0,10.17-1.86l36.78-13.78A209.58,209.58,0,0,0,171.4,454.1l6.45,38.68A28.86,28.86,0,0,0,206.42,517h85.41a28.86,28.86,0,0,0,28.56-24.21l6.45-38.69a209.58,209.58,0,0,0,52.77-30.51l36.73,13.76a28.92,28.92,0,0,0,35.29-12.62l42.7-74A28.86,28.86,0,0,0,487.66,313.93Zm-237.9,51.56,0-2.5A104.62,104.62,0,0,1,145.27,258.5a103.06,103.06,0,0,1,38.16-80.65V249a13,13,0,0,0,6.29,11.11l53.38,32a12.9,12.9,0,0,0,13.32,0l53.39-32a13,13,0,0,0,6.28-11.1V177.85A104.48,104.48,0,0,1,249.76,363v2.5Zm66.33,5.27a131.84,131.84,0,0,0,25.83-20.1A130.17,130.17,0,0,0,309,142.52a13,13,0,0,0-18.83,11.54v87.59l-40.43,24.26-40.43-24.26V154.06a13,13,0,0,0-18.83-11.54,130.28,130.28,0,0,0-32.13,209,132.81,132.81,0,0,0,25.06,19.23V431a183.72,183.72,0,0,1-54-32,13,13,0,0,0-8.4-3.09,12.76,12.76,0,0,0-4.54.82L72.7,413.14A3,3,0,0,1,69,411.79l-42.71-74a3.05,3.05,0,0,1,.72-3.9L63.1,304.23a13,13,0,0,0,4.5-12.32,186,186,0,0,1,0-66.81,13,13,0,0,0-4.51-12.33l-36-29.69a3.05,3.05,0,0,1-.71-3.9l42.7-74a3,3,0,0,1,3.73-1.32l43.77,16.39A13,13,0,0,0,129.48,118a183.76,183.76,0,0,1,57.81-33.42,13,13,0,0,0,8.43-10.07l7.68-46.06a3.05,3.05,0,0,1,3-2.56h85.41a3.06,3.06,0,0,1,3,2.57l7.67,46.05A13,13,0,0,0,311,84.59,183.6,183.6,0,0,1,368.76,118a13,13,0,0,0,12.94,2.27l43.8-16.4a3.07,3.07,0,0,1,3.7,1.34l42.71,74a3.05,3.05,0,0,1-.71,3.89l-36.06,29.69a13,13,0,0,0-4.5,12.33,186.21,186.21,0,0,1,0,66.8,13,13,0,0,0,4.5,12.33l36.05,29.69a3.05,3.05,0,0,1,.72,3.9l-42.71,74a3,3,0,0,1-3.73,1.32L381.7,396.72A13,13,0,0,0,368.76,399a183.75,183.75,0,0,1-52.67,31.5ZM209.33,382.5a131.1,131.1,0,0,0,80.86,0V491.1H209.33Z"/>
    </symbol>
    <symbol id="c-disconnect" viewBox="0 0 24 24" fill="currentColor">
      <path d="M9,20H5a1,1,0,0,1-1-1V5A1,1,0,0,1,5,4H9A1,1,0,0,0,9,2H5A3,3,0,0,0,2,5V19a3,3,0,0,0,3,3H9a1,1,0,0,0,0-2Z"/><path d="M21.92,12.38a1,1,0,0,0,0-.76,1,1,0,0,0-.21-.33l-5-5a1,1,0,0,0-1.42,1.42L18.59,11H9a1,1,0,0,0,0,2h9.59l-3.3,3.29a1,1,0,0,0,0,1.42,1,1,0,0,0,1.42,0l5-5A1,1,0,0,0,21.92,12.38Z"/>
    </symbol>
    <symbol id="c-power" viewBox="0 0 24 24" fill="currentColor">
      <path d="M19.07,5.93a1,1,0,0,0-1.42,1.42,8,8,0,1,1-11.31,0A1,1,0,0,0,4.92,5.93a10,10,0,1,0,14.15,0Z"/><path d="M12,13a1,1,0,0,0,1-1V2a1,1,0,0,0-2,0V12A1,1,0,0,0,12,13Z"/>
    </symbol>
</svg>
